<?xml version="1.0" encoding="UTF-8" standalone="no"?>
<svg
   xmlns:dc="http://purl.org/dc/elements/1.1/"
   xmlns:cc="http://creativecommons.org/ns#"
   xmlns:rdf="http://www.w3.org/1999/02/22-rdf-syntax-ns#"
   xmlns:svg="http://www.w3.org/2000/svg"
   xmlns="http://www.w3.org/2000/svg"
   xmlns:xlink="http://www.w3.org/1999/xlink"
   xmlns:sodipodi="http://sodipodi.sourceforge.net/DTD/sodipodi-0.dtd"
   xmlns:inkscape="http://www.inkscape.org/namespaces/inkscape"
   inkscape:version="1.0 (4035a4fb49, 2020-05-01)"
   sodipodi:docname="system-lock-screen.svg"
   id="svg6"
   version="1.1"
   viewBox="0 0 32 32">
  <metadata
     id="metadata10">
    <rdf:RDF>
      <cc:Work
         rdf:about="">
        <dc:format>image/svg+xml</dc:format>
        <dc:type
           rdf:resource="http://purl.org/dc/dcmitype/StillImage" />
      </cc:Work>
    </rdf:RDF>
  </metadata>
  <sodipodi:namedview
     inkscape:document-rotation="0"
     inkscape:current-layer="svg6"
     inkscape:window-maximized="1"
     inkscape:window-y="0"
     inkscape:window-x="0"
     inkscape:cy="13.567796"
     inkscape:cx="-3.891287"
     inkscape:zoom="14.182499"
     showgrid="false"
     id="namedview8"
     inkscape:window-height="1015"
     inkscape:window-width="1920"
     inkscape:pageshadow="2"
     inkscape:pageopacity="0"
     guidetolerance="10"
     gridtolerance="10"
     objecttolerance="10"
     borderopacity="1"
     bordercolor="#666666"
     pagecolor="#ffffff" />
  <defs
     id="defs3051">
    <linearGradient
       id="linearGradient820"
       inkscape:collect="always">
      <stop
         id="stop816"
         offset="0"
         style="stop-color:#a3be8c;stop-opacity:1" />
      <stop
         id="stop818"
         offset="1"
         style="stop-color:#88c0d0;stop-opacity:1" />
    </linearGradient>
    <style
       id="current-color-scheme"
       type="text/css">
      .ColorScheme-Text {
        color:#eff0f1;
      }
      </style>
    <linearGradient
       gradientUnits="userSpaceOnUse"
       y2="24.632998"
       x2="24.612728"
       y1="7.1023226"
       x1="7.8713951"
       id="linearGradient824"
       xlink:href="#linearGradient820"
       inkscape:collect="always" />
  </defs>
  <path
     sodipodi:nodetypes="ssssssssssssccccccccccssssccssccccc"
     inkscape:connector-curvature="0"
     id="path4"
     class="ColorScheme-Text"
     d="M 16,4 C 9.372583,4 4,9.372583 4,16 4,22.627417 9.372583,28 16,28 22.627417,28 28,22.627417 28,16 28,9.372583 22.627417,4 16,4 Z m 0,1.4 C 22.075132,5.4 26.6,9.924868 26.6,16 26.6,22.075132 22.075132,26.6 16,26.6 9.924868,26.6 5.4,22.075132 5.4,16 5.4,9.924868 9.924868,5.4 16,5.4 Z m 0,2.4 c -2.216,0 -4.310662,1.9867648 -4.2,4.2 v 4 h -2 v 1 7.2 H 11 21 22.2 V 16 H 21 20.2 V 12 C 20.2,9.784 18.216,7.8 16,7.8 Z m 0,1.4 c 1.662,0 2.68938,1.364158 2.8,3.3 V 16 h -5.6 v -3.5 c 0,-1.939 1.138,-3.3 2.8,-3.3 z m -4.8,8.1 h 9.6 v 5.5 h -9.6 z"
     style="color:#eff0f1;opacity:0.9;fill:url(#linearGradient824);fill-opacity:1;stroke:none" />
</svg>
