<?xml version="1.0" encoding="UTF-8" standalone="no"?>
<svg
   xmlns:dc="http://purl.org/dc/elements/1.1/"
   xmlns:cc="http://creativecommons.org/ns#"
   xmlns:rdf="http://www.w3.org/1999/02/22-rdf-syntax-ns#"
   xmlns:svg="http://www.w3.org/2000/svg"
   xmlns="http://www.w3.org/2000/svg"
   xmlns:xlink="http://www.w3.org/1999/xlink"
   xmlns:sodipodi="http://sodipodi.sourceforge.net/DTD/sodipodi-0.dtd"
   xmlns:inkscape="http://www.inkscape.org/namespaces/inkscape"
   inkscape:version="1.0 (4035a4fb49, 2020-05-01)"
   sodipodi:docname="desktop.svg"
   id="svg40"
   height="64"
   version="1.1"
   width="64">
  <metadata
     id="metadata44">
    <rdf:RDF>
      <cc:Work
         rdf:about="">
        <dc:format>image/svg+xml</dc:format>
        <dc:type
           rdf:resource="http://purl.org/dc/dcmitype/StillImage" />
      </cc:Work>
    </rdf:RDF>
  </metadata>
  <sodipodi:namedview
     inkscape:document-rotation="0"
     inkscape:current-layer="layer1"
     inkscape:window-maximized="1"
     inkscape:window-y="0"
     inkscape:window-x="0"
     inkscape:cy="36.339246"
     inkscape:cx="47.325074"
     inkscape:zoom="3.6875001"
     showgrid="false"
     id="namedview42"
     inkscape:window-height="1013"
     inkscape:window-width="1920"
     inkscape:pageshadow="2"
     inkscape:pageopacity="0"
     guidetolerance="10"
     gridtolerance="10"
     objecttolerance="10"
     borderopacity="1"
     bordercolor="#666666"
     pagecolor="#ffffff" />
  <defs
     id="defs5455">
    <linearGradient
       inkscape:collect="always"
       id="linearGradient883">
      <stop
         style="stop-color:#d08770;stop-opacity:1"
         id="stop879" />
      <stop
         offset="1"
         style="stop-color:#bf616a;stop-opacity:1"
         id="stop881" />
    </linearGradient>
    <linearGradient
       id="linearGradient869"
       inkscape:collect="always">
      <stop
         id="stop864"
         offset="0"
         style="stop-color:#ebcb8b;stop-opacity:1" />
      <stop
         id="stop867"
         offset="1"
         style="stop-color:#b48ead;stop-opacity:1" />
    </linearGradient>
    <linearGradient
       gradientTransform="matrix(0.91666628 0 0 0.91666628 -340.52366 -455.81464)"
       gradientUnits="userSpaceOnUse"
       x2="384.57144"
       y2="531.45813"
       x1="418.16971"
       y1="503.07938"
       id="linearGradient4703"
       xlink:href="#linearGradient883"
       inkscape:collect="always" />
    <linearGradient
       gradientTransform="matrix(0.91666628,0,0,0.91666628,-340.52366,-455.81464)"
       gradientUnits="userSpaceOnUse"
       x2="430.73611"
       y2="528.35034"
       x1="404.0452"
       y1="521.63281"
       id="linearGradient4532"
       xlink:href="#linearGradient883"
       inkscape:collect="always" />
    <linearGradient
       gradientTransform="matrix(0.91666628,0,0,0.91666628,-340.52366,-455.81464)"
       gradientUnits="userSpaceOnUse"
       x2="394.00299"
       y2="524.89966"
       x1="398.09201"
       y1="542.22382"
       id="linearGradient4474"
       xlink:href="#linearGradient869"
       inkscape:collect="always" />
    <linearGradient
       gradientTransform="matrix(-1,0,0,1,839.14285,-40.00001)"
       gradientUnits="userSpaceOnUse"
       x2="439.57141"
       y2="562.79803"
       x1="431.57141"
       y1="568.79803"
       id="linearGradient4500"
       xlink:href="#linearGradient869"
       inkscape:collect="always" />
    <linearGradient
       gradientTransform="matrix(-0.91666628,0,0,0.91666628,428.69029,-492.4813)"
       gradientUnits="userSpaceOnUse"
       x2="423.31955"
       y2="572.67786"
       x1="406.53735"
       y1="581.87024"
       id="linearGradient4498"
       xlink:href="#linearGradient869"
       inkscape:collect="always" />
    <linearGradient
       gradientTransform="matrix(-0.91666628,0,0,0.91666628,448.69029,-492.4813)"
       gradientUnits="userSpaceOnUse"
       x2="431.22452"
       y2="566.76562"
       x1="423.05438"
       y1="572.33411"
       id="linearGradient4496"
       xlink:href="#linearGradient869"
       inkscape:collect="always" />
    <linearGradient
       gradientTransform="matrix(-0.91666628,0,0,0.91666628,428.69029,-492.4813)"
       gradientUnits="userSpaceOnUse"
       x2="440.63208"
       y2="571.44531"
       x1="431.3129"
       y1="577.10217"
       id="linearGradient4492"
       xlink:href="#linearGradient869"
       inkscape:collect="always" />
    <linearGradient
       gradientTransform="matrix(-0.91666628,0,0,0.91666628,428.69029,-492.4813)"
       gradientUnits="userSpaceOnUse"
       x2="423.74994"
       y2="591.32782"
       x1="430.56738"
       y1="577.36243"
       id="linearGradient4490"
       xlink:href="#linearGradient869"
       inkscape:collect="always" />
    <linearGradient
       gradientUnits="userSpaceOnUse"
       y2="513.33412"
       x2="432.57145"
       y1="513.33412"
       x1="399.53737"
       id="linearGradient871"
       xlink:href="#linearGradient869"
       inkscape:collect="always" />
  </defs>
  <g
     transform="translate(-384.57143,-483.798)"
     id="layer1"
     inkscape:groupmode="layer"
     inkscape:label="Capa 1">
    <g
       transform="matrix(1.2083328,0,0,1.5888879,-77.11883,-310.68057)"
       id="g4578">
      <path
         transform="matrix(1.0909096,0,0,1.0909096,371.48052,497.25255)"
         d="M 12,6 V 36 H 56 V 6 Z"
         id="path4589"
         style="fill:url(#linearGradient4703)"
         inkscape:connector-curvature="0" />
      <path
         transform="matrix(1.0909096,0,0,1.0909096,371.48052,497.25255)"
         d="M 56,6 25.71875,23.482422 47.400391,36 H 56 Z"
         id="path4284"
         style="fill:url(#linearGradient4532);fill-opacity:1.0;stroke-width:2;stroke-linecap:round"
         inkscape:connector-curvature="0" />
      <path
         transform="matrix(1.0909096,0,0,1.0909096,371.48052,497.25255)"
         d="M 25.75,23.416016 12,31.355469 V 36 h 35.605469 z"
         id="path4284-5-6"
         style="fill:url(#linearGradient4474);stroke-width:2;stroke-linecap:round;fill-opacity:1.0"
         inkscape:connector-curvature="0" />
      <path
         d="m 407.82995,527.56606 -8.25852,-4.76806 v 9.53611 z"
         id="path4284-5-6-2-2"
         style="fill:url(#linearGradient4500);stroke-width:2;stroke-linecap:round;fill-opacity:1.0"
         inkscape:connector-curvature="0"
         inkscape:transform-center-x="-5.5056915" />
      <path
         transform="matrix(1.0909096,0,0,1.0909096,371.48052,497.25255)"
         d="M 40.890625,32.15625 V 36 h 6.65625 z"
         id="path4284-5-6-2-0"
         style="fill:url(#linearGradient4498);stroke-width:2;stroke-linecap:round;fill-opacity:1.0"
         inkscape:connector-curvature="0" />
      <path
         transform="matrix(1.0909096,0,0,1.0909096,349.66233,497.25255)"
         d="M 53.320312,27.787109 V 36 h 0.916016 l 6.654297,-3.841797 z"
         id="path4284-5-6-2-6"
         style="fill:url(#linearGradient4496);stroke-width:2;stroke-linecap:round;fill-opacity:1.0"
         inkscape:connector-curvature="0" />
      <path
         transform="matrix(1.0909096,0,0,1.0909096,371.48052,497.25255)"
         d="M 25.75,32.158203 V 36 h 6.654297 z"
         id="path4284-5-6-2-6-50"
         style="fill:url(#linearGradient4492);fill-opacity:1.0;stroke-width:2;stroke-linecap:round"
         inkscape:connector-curvature="0" />
      <path
         transform="matrix(1.0909096,0,0,1.0909096,371.48052,497.25255)"
         d="M 40.890625,32.15625 34.234375,36 h 6.65625 z"
         id="path4284-5-6-2-0-6"
         style="fill:url(#linearGradient4490);stroke-width:2;stroke-linecap:round;fill-opacity:1.0"
         inkscape:connector-curvature="0" />
      <path
         d="m 399.53737,522.87024 33.03408,-19.07223 -2e-5,9.31712 z"
         id="path4284-1"
         style="fill:url(#linearGradient871);fill-opacity:1;stroke-width:2;stroke-linecap:round"
         inkscape:connector-curvature="0"
         inkscape:transform-center-x="5.5056789" />
    </g>
    <g
       id="g4255">
      <path
         d="m 387.57143,537.798 v 3.2 0.8 h 1 56 1 v -0.8 -3.2 z"
         id="rect4128"
         style="fill:#ffffff;fill-opacity:0.784314"
         inkscape:connector-curvature="0" />
      <g
         transform="matrix(0.64829823,0,0,0.64829823,155.63174,190.06072)"
         id="text4213">
        <path
           d="m 434.23853,537.83412 c -0.15893,0.11003 -0.36677,0.22414 -0.54201,0.30157 l 0.0734,0.28934 c 0.14264,-0.0448 0.27305,-0.12225 0.43198,-0.22414 v 2.60819 h 0.35455 v -2.97496 h -0.31787 z"
           id="path4218"
           inkscape:connector-curvature="0" />
        <path
           d="m 435.20119,538.03381 0.11819,0.29749 c 0.16708,-0.17116 0.41568,-0.24452 0.66427,-0.24452 0.33825,0 0.52571,0.18747 0.52571,0.51757 v 0.0204 c -0.004,0.2323 -0.15486,0.46051 -0.38715,0.71726 l -1.02697,1.14108 0.0448,0.32602 h 1.74016 l 0.0245,-0.30565 h -1.38153 l 0.83951,-0.89656 c 0.32603,-0.35048 0.52572,-0.63575 0.52979,-1.01067 v -0.0122 c 0,-0.48904 -0.34232,-0.81098 -0.88434,-0.81098 -0.38715,0 -0.63982,0.10595 -0.80691,0.26082 z"
           id="path4220"
           inkscape:connector-curvature="0" />
        <path
           d="m 437.42599,540.85799 h 0.4116 v -0.46459 h -0.4116 z m 0,-1.82574 h 0.4116 v -0.46051 h -0.4116 z"
           id="path4222"
           inkscape:connector-curvature="0" />
        <path
           d="m 439.75394,539.98995 c 0,0.3627 -0.2649,0.56239 -0.65613,0.56239 -0.30157,0 -0.50941,-0.0978 -0.6602,-0.21599 l -0.1141,0.28934 c 0.11003,0.10596 0.39122,0.22822 0.77838,0.22822 0.57869,0 1.00252,-0.3301 1.00252,-0.85989 0,-0.41975 -0.23229,-0.68872 -0.59499,-0.77023 0.32195,-0.0978 0.52164,-0.3301 0.52164,-0.71317 0,-0.47681 -0.41161,-0.73763 -0.85174,-0.73763 -0.41161,0 -0.6765,0.0897 -0.85581,0.22821 l 0.1141,0.28935 c 0.15894,-0.12634 0.39123,-0.21192 0.66428,-0.21192 0.35047,0 0.54609,0.14671 0.54609,0.47681 0,0.46866 -0.43198,0.52164 -0.88842,0.52164 v 0.29342 c 0.55424,0 0.99438,0.0856 0.99438,0.61945 z"
           id="path4224"
           inkscape:connector-curvature="0" />
        <path
           d="m 441.86538,538.2824 v 1.49971 h -0.99437 z m 0.67243,1.78905 0.0285,-0.28934 h -0.36678 v -1.94799 h -0.37085 l -1.30817,1.93169 v 0.30564 h 1.34484 v 0.73763 h 0.33418 v -0.73763 h 0.33825 z"
           id="path4226"
           inkscape:connector-curvature="0" />
      </g>
      <path
         d="m 391.07143,538.69839 a 0.16666666,0.16666666 0 0 0 -0.16667,0.16667 0.16666666,0.16666666 0 0 0 0.16667,0.16667 0.16666666,0.16666666 0 0 0 0.16666,-0.16667 0.16666666,0.16666666 0 0 0 -0.16666,-0.16667 z m 0.83333,0 -0.32292,0.26042 0.43229,0.53646 -0.40625,0.40625 0.29688,0.29687 0.66667,-0.66667 z m -1.08333,0.66667 a 0.25,0.25 0 0 0 -0.25,0.25 0.25,0.25 0 0 0 0.25,0.25 0.25,0.25 0 0 0 0.25,-0.25 0.25,0.25 0 0 0 -0.25,-0.25 z m 0.5,0.83333 a 0.25,0.25 0 0 0 -0.25,0.25 0.25,0.25 0 0 0 0.25,0.25 0.25,0.25 0 0 0 0.25,-0.25 0.25,0.25 0 0 0 -0.25,-0.25 z"
         id="path2994"
         style="color:#000000"
         inkscape:connector-curvature="0" />
    </g>
  </g>
</svg>
