<?xml version="1.0" encoding="UTF-8" standalone="no"?>
<svg
   xmlns:dc="http://purl.org/dc/elements/1.1/"
   xmlns:cc="http://creativecommons.org/ns#"
   xmlns:rdf="http://www.w3.org/1999/02/22-rdf-syntax-ns#"
   xmlns:svg="http://www.w3.org/2000/svg"
   xmlns="http://www.w3.org/2000/svg"
   xmlns:xlink="http://www.w3.org/1999/xlink"
   xmlns:sodipodi="http://sodipodi.sourceforge.net/DTD/sodipodi-0.dtd"
   xmlns:inkscape="http://www.inkscape.org/namespaces/inkscape"
   inkscape:version="1.0 (4035a4fb49, 2020-05-01)"
   sodipodi:docname="folder-games.svg"
   id="svg27"
   version="1.1"
   width="64"
   height="64">
  <metadata
     id="metadata33">
    <rdf:RDF>
      <cc:Work
         rdf:about="">
        <dc:format>image/svg+xml</dc:format>
        <dc:type
           rdf:resource="http://purl.org/dc/dcmitype/StillImage" />
      </cc:Work>
    </rdf:RDF>
  </metadata>
  <defs
     id="defs31">
    <linearGradient
       id="linearGradient835"
       inkscape:collect="always">
      <stop
         id="stop831"
         offset="0"
         style="stop-color:#bf616a;stop-opacity:1" />
      <stop
         id="stop833"
         offset="1"
         style="stop-color:#d08770;stop-opacity:1" />
    </linearGradient>
    <linearGradient
       id="linearGradient828"
       inkscape:collect="always">
      <stop
         id="stop824"
         offset="0"
         style="stop-color:#ebcb8b;stop-opacity:1" />
      <stop
         id="stop826"
         offset="1"
         style="stop-color:#b48ead;stop-opacity:1" />
    </linearGradient>
    <linearGradient
       gradientUnits="userSpaceOnUse"
       y2="20"
       x2="60"
       y1="6"
       x1="4"
       id="linearGradient830"
       xlink:href="#linearGradient828"
       inkscape:collect="always" />
    <linearGradient
       gradientUnits="userSpaceOnUse"
       y2="37"
       x2="60.999998"
       y1="37"
       x1="3"
       id="linearGradient837"
       xlink:href="#linearGradient835"
       inkscape:collect="always" />
  </defs>
  <sodipodi:namedview
     inkscape:document-rotation="0"
     inkscape:lockguides="true"
     inkscape:current-layer="svg27"
     inkscape:window-maximized="1"
     inkscape:window-y="0"
     inkscape:window-x="0"
     inkscape:cy="22.877296"
     inkscape:cx="-52.707972"
     inkscape:zoom="5.2149125"
     showgrid="false"
     id="namedview29"
     inkscape:window-height="1013"
     inkscape:window-width="1920"
     inkscape:pageshadow="2"
     inkscape:pageopacity="0"
     guidetolerance="10"
     gridtolerance="10"
     objecttolerance="10"
     borderopacity="1"
     bordercolor="#666666"
     pagecolor="#ffffff" />
  <linearGradient
     y2="499.784"
     y1="541.798"
     x2="0"
     gradientUnits="userSpaceOnUse"
     gradientTransform="matrix(1,0,0,0.99967,-482.19812,-481.72369)"
     id="a">
    <stop
       id="stop2"
       stop-color="#3daee9"
       offset="0" />
    <stop
       id="stop4"
       stop-color="#6cc1ef"
       offset="1" />
  </linearGradient>
  <path
     style="fill:url(#linearGradient830);fill-opacity:1"
     inkscape:connector-curvature="0"
     id="path7"
     d="m 4.0000002,6 v 27 c 0,0.554 0.446,1 1,1 H 59 c 0.554,0 1,-0.446 1,-1 V 11.01 L 59.998,11 H 60 V 10 H 32 L 28,6 Z" />
  <path
     inkscape:connector-curvature="0"
     style="fill:url(#linearGradient837);fill-opacity:1"
     id="path9"
     d="m 26,16 -4,4 H 3 v 1 H 3.002 L 3,21.012 V 58 H 60.999998 V 16 Z" />
  <g
     id="g19"
     fill-opacity=".235">
    <path
       id="path11"
       fill-rule="evenodd"
       fill="#fff"
       d="m3 20v1h20l3-5-4 4z" />
    <path
       id="path13"
       fill-rule="evenodd"
       d="m4 19v1h18l4-4-6 3z" />
    <path
       id="path15"
       d="m3 57v1h58v-1h-57z" />
    <path
       id="path17"
       fill-rule="evenodd"
       fill="#fff"
       d="m28 6 3 5h29v-1h-28z" />
  </g>
  <g
     style="fill:#002d3c;fill-opacity:1"
     transform="translate(-0.27118661,-1.084746)"
     id="g25">
    <path
       style="fill:#090811;fill-opacity:1"
       inkscape:connector-curvature="0"
       id="path21"
       d="m 25,30 c -2.21,0 -4,2.685 -4,5.999 v 6.998 c 0,1.78 2.154,2.673 3.414,1.413 l 2.414,-2.413 h 0.676 a 2.5,2.5 0 0 0 1.996,1 2.5,2.5 0 0 0 1.992,-1 h 0.906 a 2.5,2.5 0 0 0 1.997,1 2.5,2.5 0 0 0 1.992,-1 h 0.785 l 2.414,2.413 C 40.846,45.67 43,44.777 43,42.997 V 35.999 C 43,32.685 41.21,30 39,30 Z m 0,1 h 14 c 1.657,0 3,2.238 3,4.999 v 6.998 c 0,0.89 -1.077,1.336 -1.707,0.707 l -2.707,-2.707 h -1.779 a 1.5,1.5 0 0 1 -1.412,1 A 1.5,1.5 0 0 1 33,41.042 v -0.045 h -2.088 a 1.5,1.5 0 0 1 -1.412,1 1.5,1.5 0 0 1 -1.412,-1 h -1.674 l -2.707,2.707 C 23.077,44.334 22,43.888 22,42.997 v -6.998 c 0,-2.76 1.343,-5 3,-5 z" />
    <path
       style="fill:#090812;fill-opacity:1"
       inkscape:connector-curvature="0"
       id="path23"
       d="m 25,31.996 v 2 h -2 v 2 h 2 v 2 h 2 v -2 h 2 v -2 h -2 v -2 z m 11,7.5 a 1.5,1.5 0 0 1 -1.5,1.5 1.5,1.5 0 0 1 -1.5,-1.5 1.5,1.5 0 0 1 1.5,-1.5 1.5,1.5 0 0 1 1.5,1.5 z m -5,0 a 1.5,1.5 0 0 1 -1.5,1.5 1.5,1.5 0 0 1 -1.5,-1.5 1.5,1.5 0 0 1 1.5,-1.5 1.5,1.5 0 0 1 1.5,1.5 z m 8,-2.5 a 1,1 0 0 1 -1,1 1,1 0 0 1 -1,-1 1,1 0 0 1 1,-1 1,1 0 0 1 1,1 z m 2,-2 a 1,1 0 0 1 -1,1 1,1 0 0 1 -1,-1 1,1 0 0 1 1,-1 1,1 0 0 1 1,1 z m -2,-2 a 1,1 0 0 1 -1,1 1,1 0 0 1 -1,-1 1,1 0 0 1 1,-1 1,1 0 0 1 1,1 z m -2,2 a 1,1 0 0 1 -1,1 1,1 0 0 1 -1,-1 1,1 0 0 1 1,-1 1,1 0 0 1 1,1 z" />
  </g>
</svg>
