<?xml version="1.0" encoding="UTF-8" standalone="no"?>
<svg
   xmlns:dc="http://purl.org/dc/elements/1.1/"
   xmlns:cc="http://creativecommons.org/ns#"
   xmlns:rdf="http://www.w3.org/1999/02/22-rdf-syntax-ns#"
   xmlns:svg="http://www.w3.org/2000/svg"
   xmlns="http://www.w3.org/2000/svg"
   xmlns:xlink="http://www.w3.org/1999/xlink"
   xmlns:sodipodi="http://sodipodi.sourceforge.net/DTD/sodipodi-0.dtd"
   xmlns:inkscape="http://www.inkscape.org/namespaces/inkscape"
   sodipodi:docname="akregator.svg"
   inkscape:version="1.0 (4035a4fb49, 2020-05-01)"
   version="1.1"
   id="svg3314"
   height="24"
   width="24">
  <title
     id="title3045">Tilain</title>
  <defs
     id="defs3316">
    <linearGradient
       id="linearGradient848"
       inkscape:collect="always">
      <stop
         id="stop844"
         offset="0"
         style="stop-color:#d99e8c;stop-opacity:1" />
      <stop
         id="stop846"
         offset="1"
         style="stop-color:#bf616a;stop-opacity:1" />
    </linearGradient>
    <linearGradient
       gradientUnits="userSpaceOnUse"
       y2="4.090363"
       x2="19.946039"
       y1="19.890308"
       x1="4.0515013"
       id="linearGradient850"
       xlink:href="#linearGradient848"
       inkscape:collect="always" />
  </defs>
  <sodipodi:namedview
     inkscape:document-rotation="0"
     inkscape:guide-bbox="true"
     showguides="false"
     inkscape:window-maximized="1"
     inkscape:window-y="0"
     inkscape:window-x="0"
     inkscape:window-height="1015"
     inkscape:window-width="1920"
     borderlayer="true"
     inkscape:document-units="px"
     inkscape:grid-bbox="true"
     showgrid="false"
     inkscape:current-layer="layer2"
     inkscape:cy="15.147044"
     inkscape:cx="14.71833"
     inkscape:zoom="17.346652"
     inkscape:pageshadow="2"
     inkscape:pageopacity="1"
     borderopacity="1"
     bordercolor="#000000"
     pagecolor="#ffffff"
     id="base">
    <inkscape:grid
       snapvisiblegridlinesonly="true"
       enabled="true"
       visible="true"
       empspacing="5"
       id="grid3045"
       type="xygrid" />
    <sodipodi:guide
       inkscape:locked="false"
       id="guide3086"
       position="25,20"
       orientation="0,1" />
    <sodipodi:guide
       inkscape:locked="false"
       id="guide3088"
       position="25,4"
       orientation="0,1" />
    <sodipodi:guide
       inkscape:locked="false"
       id="guide4128"
       position="0,12"
       orientation="0,1" />
  </sodipodi:namedview>
  <metadata
     id="metadata3319">
    <rdf:RDF>
      <cc:Work
         rdf:about="">
        <dc:format>image/svg+xml</dc:format>
        <dc:type
           rdf:resource="http://purl.org/dc/dcmitype/StillImage" />
        <dc:title>Tilain</dc:title>
        <cc:license
           rdf:resource="" />
      </cc:Work>
    </rdf:RDF>
  </metadata>
  <g
     inkscape:label="Ebene#1"
     id="layer2"
     inkscape:groupmode="layer">
    <g
       id="akregator">
      <rect
         y="0"
         x="0"
         height="24"
         width="24"
         id="rect3879"
         style="opacity:0;fill:#000000;fill-opacity:1;stroke:none" />
      <path
         id="path3038"
         d="M 5,3 C 3.8954305,3 3,3.8954305 3,5 3,6.1045695 3.8954305,7 5,7 3.8954305,7 3,7.8954305 3,9 c 0,1.104569 0.8954305,2 2,2 -1.1045695,0 -2,0.895431 -2,2 0,1.104569 0.8954305,2 2,2 0.1386759,0 0.2712101,0.04873 0.40625,0.0625 C 4.0392006,15.342239 3,16.550253 3,18 3,19.656854 4.3431458,21 6,21 7.4497475,21 8.6577612,19.960799 8.9375,18.59375 8.9512744,18.72879 9,18.861324 9,19 c 0,1.104569 0.8954305,2 2,2 1.104569,0 2,-0.895431 2,-2 0,1.104569 0.895431,2 2,2 1.104569,0 2,-0.895431 2,-2 0,1.104569 0.895431,2 2,2 1.104569,0 2,-0.895431 2,-2 0,-0.138071 -0.0046,-0.276055 -0.03125,-0.40625 C 20.752957,10.085648 13.914352,3.2470428 5.40625,3.03125 5.2760548,3.0046082 5.1380712,3 5,3 Z m 0,1 c 8.284271,0 15,6.715729 15,15 0,0.552285 -0.447715,1 -1,1 -0.552285,0 -1,-0.447715 -1,-1 C 18,11.820298 12.179702,6 5,6 4.4477153,6 4,5.5522847 4,5 4,4.4477153 4.4477153,4 5,4 Z m 0,4 c 6.075132,0 11,4.924868 11,11 0,0.552285 -0.447715,1 -1,1 -0.552285,0 -1,-0.447715 -1,-1 C 14,14.029437 9.9705627,10 5,10 4.4477153,10 4,9.5522847 4,9 4,8.4477153 4.4477153,8 5,8 Z m 0,4 c 3.8659932,0 7,3.134007 7,7 0,0.552285 -0.447715,1 -1,1 -0.552285,0 -1,-0.447715 -1,-1 C 10,16.238576 7.7614237,14 5,14 4.4477153,14 4,13.552285 4,13 4,12.447715 4.4477153,12 5,12 Z m 1,4 c 1.1045695,0 2,0.895431 2,2 0,1.104569 -0.8954305,2 -2,2 -1.1045695,0 -2,-0.895431 -2,-2 0,-1.104569 0.8954305,-2 2,-2 z"
         style="fill:#ffffff;fill-opacity:0;stroke:none" />
      <path
         id="path2997"
         d="M 5,4 C 4.4477153,4 4,4.4477153 4,5 c 0,0.5522847 0.4477153,1 1,1 7.179702,0 13,5.820298 13,13 0,0.552285 0.447715,1 1,1 0.552285,0 1,-0.447715 1,-1 C 20,10.715729 13.284271,4 5,4 Z M 5,8 C 4.4477153,8 4,8.4477153 4,9 c 0,0.5522847 0.4477153,1 1,1 4.9705627,0 9,4.029437 9,9 0,0.552285 0.447715,1 1,1 0.552285,0 1,-0.447715 1,-1 C 16,12.924868 11.075132,8 5,8 Z m 0,4 c -0.5522847,0 -1,0.447715 -1,1 0,0.552285 0.4477153,1 1,1 2.7614237,0 5,2.238576 5,5 0,0.552285 0.447715,1 1,1 0.552285,0 1,-0.447715 1,-1 0,-3.865993 -3.1340068,-7 -7,-7 z m 1,4 c -1.1045695,0 -2,0.895431 -2,2 0,1.104569 0.8954305,2 2,2 1.1045695,0 2,-0.895431 2,-2 0,-1.104569 -0.8954305,-2 -2,-2 z"
         style="fill:url(#linearGradient850);fill-opacity:1;stroke:none"
         inkscape:connector-curvature="0" />
    </g>
    <g
       id="g3085">
      <rect
         style="opacity:0;fill:#000000;fill-opacity:1;stroke:none"
         id="rect3077"
         width="24"
         height="24"
         x="-40"
         y="-40" />
      <path
         inkscape:connector-curvature="0"
         style="fill:#4d4d4d;fill-opacity:1;stroke:none"
         d="m -35,-36 c -0.552285,0 -1,0.447715 -1,1 0,0.552285 0.447715,1 1,1 7.179702,0 13,5.820298 13,13 0,0.552285 0.447715,1 1,1 0.552285,0 1,-0.447715 1,-1 0,-8.284271 -6.715729,-15 -15,-15 z m 0,4 c -0.552285,0 -1,0.447715 -1,1 0,0.552285 0.447715,1 1,1 4.970563,0 9,4.029437 9,9 0,0.552285 0.447715,1 1,1 0.552285,0 1,-0.447715 1,-1 0,-6.075132 -4.924868,-11 -11,-11 z m 0,4 c -0.552285,0 -1,0.447715 -1,1 0,0.552285 0.447715,1 1,1 2.761424,0 5,2.238576 5,5 0,0.552285 0.447715,1 1,1 0.552285,0 1,-0.447715 1,-1 0,-3.865993 -3.134007,-7 -7,-7 z m 1,4 c -1.104569,0 -2,0.895431 -2,2 0,1.104569 0.895431,2 2,2 1.104569,0 2,-0.895431 2,-2 0,-1.104569 -0.895431,-2 -2,-2 z"
         id="path3079" />
      <path
         id="path3081"
         d="m -35,-37 c -1.104569,0 -2,0.895431 -2,2 0,1.104569 0.895431,2 2,2 -1.104569,0 -2,0.89543 -2,2 0,1.104569 0.895431,2 2,2 -1.104569,0 -2,0.895431 -2,2 0,1.104569 0.895431,2 2,2 2.209139,0 4,1.790861 4,4 0,1.104569 0.89543,2 2,2 1.104569,0 2,-0.895431 2,-2 0,1.104569 0.895431,2 2,2 1.104569,0 2,-0.895431 2,-2 0,1.104569 0.895431,2 2,2 1.104569,0 2,-0.895431 2,-2 0,-0.138071 -0.0046,-0.276055 -0.03125,-0.40625 -0.215793,-8.508102 -7.054398,-15.346707 -15.5625,-15.5625 C -34.723945,-36.995392 -34.861929,-37 -35,-37 Z"
         style="fill:#ffffff;fill-opacity:0;stroke:none"
         inkscape:connector-curvature="0" />
      <circle
         r="3"
         cy="18"
         cx="6"
         id="path3083"
         style="fill:#ffffff;fill-opacity:0;stroke:none"
         transform="translate(-40,-40)" />
    </g>
  </g>
</svg>
