<?xml version="1.0" encoding="UTF-8" standalone="no"?>
<svg
   xmlns:dc="http://purl.org/dc/elements/1.1/"
   xmlns:cc="http://creativecommons.org/ns#"
   xmlns:rdf="http://www.w3.org/1999/02/22-rdf-syntax-ns#"
   xmlns:svg="http://www.w3.org/2000/svg"
   xmlns="http://www.w3.org/2000/svg"
   xmlns:xlink="http://www.w3.org/1999/xlink"
   xmlns:sodipodi="http://sodipodi.sourceforge.net/DTD/sodipodi-0.dtd"
   xmlns:inkscape="http://www.inkscape.org/namespaces/inkscape"
   width="32"
   height="32"
   version="1.1"
   id="svg12"
   sodipodi:docname="akregator.svg"
   inkscape:version="1.0.1 (3bc2e813f5, 2020-09-07)">
  <metadata
     id="metadata18">
    <rdf:RDF>
      <cc:Work
         rdf:about="">
        <dc:format>image/svg+xml</dc:format>
        <dc:type
           rdf:resource="http://purl.org/dc/dcmitype/StillImage" />
      </cc:Work>
    </rdf:RDF>
  </metadata>
  <defs
     id="defs16">
    <linearGradient
       inkscape:collect="always"
       id="linearGradient842">
      <stop
         style="stop-color:#d99e8c;stop-opacity:1"
         offset="0"
         id="stop838" />
      <stop
         style="stop-color:#bf616a;stop-opacity:1"
         offset="1"
         id="stop840" />
    </linearGradient>
    <linearGradient
       inkscape:collect="always"
       xlink:href="#linearGradient842"
       id="linearGradient844"
       x1="5"
       y1="27"
       x2="27"
       y2="5"
       gradientUnits="userSpaceOnUse" />
    <linearGradient
       inkscape:collect="always"
       xlink:href="#linearGradient842"
       id="linearGradient854"
       gradientUnits="userSpaceOnUse"
       x1="35"
       y1="29"
       x2="51"
       y2="13" />
  </defs>
  <sodipodi:namedview
     pagecolor="#ffffff"
     bordercolor="#666666"
     borderopacity="1"
     objecttolerance="10"
     gridtolerance="10"
     guidetolerance="10"
     inkscape:pageopacity="0"
     inkscape:pageshadow="2"
     inkscape:window-width="1920"
     inkscape:window-height="1009"
     id="namedview14"
     showgrid="false"
     inkscape:zoom="9.8125"
     inkscape:cx="24.230986"
     inkscape:cy="7.9823082"
     inkscape:window-x="0"
     inkscape:window-y="0"
     inkscape:window-maximized="1"
     inkscape:current-layer="svg12"
     inkscape:document-rotation="0">
    <inkscape:grid
       type="xygrid"
       id="grid857"
       originx="0"
       originy="0" />
  </sodipodi:namedview>
  <g
     id="akregator">
    <rect
       style="opacity:0.00100002"
       width="32"
       height="32"
       x="0"
       y="0"
       id="rect7" />
    <path
       id="path2997"
       d="m 6.375,5.0000003 c -0.759391,0 -1.375,0.6156087 -1.375,1.375 0,0.7593913 0.615609,1.375 1.375,1.375 9.872082,0 17.875,8.0029107 17.875,17.8749997 0,0.759389 0.615609,1.375 1.375,1.375 C 26.384392,27 27,26.384389 27,25.625 27,14.234128 17.765873,5.0000003 6.375,5.0000003 Z m 0,5.5000007 C 5.615609,10.500001 5,11.115609 5,11.875 c 0,0.759392 0.615609,1.375001 1.375,1.375001 6.834523,0 12.375,5.540476 12.375,12.374999 0,0.759389 0.615609,1.375 1.375,1.375 0.759391,0 1.375,-0.615611 1.375,-1.375 0,-8.353306 -6.771691,-15.124999 -15.125,-15.124999 z m 0,5.5 c -0.759391,0 -1.375,0.615608 -1.375,1.375 0,0.759392 0.615609,1.375 1.375,1.375 3.796964,0 6.875,3.078044 6.875,6.874999 0,0.759389 0.615609,1.375 1.375,1.375 C 15.384391,27 16,26.384389 16,25.625 16,20.309261 11.690741,16.000001 6.375,16.000001 Z M 7.75,21.5 C 6.231214,21.5 5,22.731223 5,24.25 5,25.768784 6.231214,27 7.75,27 9.268785,27 10.5,25.768784 10.5,24.25 10.5,22.731223 9.268785,21.5 7.75,21.5 Z"
       style="fill:url(#linearGradient844);fill-opacity:1;stroke:none;stroke-width:1.375"
       inkscape:connector-curvature="0" />
  </g>
  <g
     id="22-22-akregator">
    <g
       id="g914">
      <g
         id="g909">
        <rect
           style="opacity:0.00100002"
           width="22"
           height="22"
           x="32"
           y="10.000003"
           id="rect2" />
        <path
           id="path2997-5"
           d="m 36,12.999999 c -0.552282,0 -1,0.447718 -1,1 0,0.552282 0.447718,1 1,1 7.1797,0 13,5.820296 13,13 0,0.552284 0.447718,1 1,1 0.552283,0 1,-0.447716 1,-1 0,-8.284269 -6.71573,-15 -15,-15 z M 36,17 c -0.552282,0 -1,0.447717 -1,0.999999 C 35,18.552282 35.447718,19 36,19 c 4.970563,0 9,4.029436 9,8.999999 0,0.552284 0.447718,1 1,1 0.552282,0 1,-0.447716 1,-1 C 47,21.924871 42.075131,17 36,17 Z m 0,4 c -0.552282,0 -1,0.447717 -1,1 0,0.552283 0.447718,1 1,1 2.761424,0 5,2.238579 5,4.999999 0,0.552284 0.447718,1 1,1 0.552282,0 1,-0.447716 1,-1 C 43,24.134002 39.866001,21 36,21 Z m 1,3.999999 c -1.104568,0 -2,0.895441 -2,2 0,1.104569 0.895432,2 2,2 1.104567,0 2,-0.895431 2,-2 0,-1.104559 -0.895433,-2 -2,-2 z"
           style="fill:url(#linearGradient854);fill-opacity:1.0;stroke:none;stroke-width:1"
           inkscape:connector-curvature="0" />
      </g>
    </g>
  </g>
</svg>
