<?xml version="1.0" encoding="UTF-8" standalone="no"?>
<svg
   xmlns:dc="http://purl.org/dc/elements/1.1/"
   xmlns:cc="http://creativecommons.org/ns#"
   xmlns:rdf="http://www.w3.org/1999/02/22-rdf-syntax-ns#"
   xmlns:svg="http://www.w3.org/2000/svg"
   xmlns="http://www.w3.org/2000/svg"
   xmlns:xlink="http://www.w3.org/1999/xlink"
   xmlns:sodipodi="http://sodipodi.sourceforge.net/DTD/sodipodi-0.dtd"
   xmlns:inkscape="http://www.inkscape.org/namespaces/inkscape"
   inkscape:version="1.0 (4035a4fb49, 2020-05-01)"
   sodipodi:docname="applications.svg"
   id="svg17"
   version="1.1"
   height="32"
   width="32">
  <metadata
     id="metadata23">
    <rdf:RDF>
      <cc:Work
         rdf:about="">
        <dc:format>image/svg+xml</dc:format>
        <dc:type
           rdf:resource="http://purl.org/dc/dcmitype/StillImage" />
      </cc:Work>
    </rdf:RDF>
  </metadata>
  <defs
     id="defs21">
    <linearGradient
       id="linearGradient902"
       inkscape:collect="always">
      <stop
         id="stop898"
         offset="0"
         style="stop-color:#b48ead;stop-opacity:1" />
      <stop
         id="stop900"
         offset="1"
         style="stop-color:#88c0d0;stop-opacity:1" />
    </linearGradient>
    <linearGradient
       id="linearGradient896"
       inkscape:collect="always">
      <stop
         id="stop892"
         offset="0"
         style="stop-color:#a3be8c;stop-opacity:1" />
      <stop
         id="stop894"
         offset="1"
         style="stop-color:#ebcb8b;stop-opacity:1" />
    </linearGradient>
    <linearGradient
       inkscape:collect="always"
       id="linearGradient875">
      <stop
         style="stop-color:#a3be8c;stop-opacity:1"
         offset="0"
         id="stop870" />
      <stop
         style="stop-color:#88c0d0;stop-opacity:1"
         offset="1"
         id="stop872" />
    </linearGradient>
    <linearGradient
       inkscape:collect="always"
       id="linearGradient873">
      <stop
         style="stop-color:#ebcb8b;stop-opacity:1"
         offset="0"
         id="stop865" />
      <stop
         style="stop-color:#a3be8c;stop-opacity:1"
         offset="1"
         id="stop868" />
    </linearGradient>
    <linearGradient
       id="linearGradient871"
       inkscape:collect="always">
      <stop
         id="stop867"
         offset="0"
         style="stop-color:#d08770;stop-opacity:1" />
      <stop
         id="stop869"
         offset="1"
         style="stop-color:#bf616a;stop-opacity:1" />
    </linearGradient>
    <linearGradient
       id="linearGradient903"
       inkscape:collect="always">
      <stop
         id="stop899"
         offset="0"
         style="stop-color:#ff00ff;stop-opacity:1" />
      <stop
         id="stop901"
         offset="1"
         style="stop-color:#ff9955;stop-opacity:1" />
    </linearGradient>
    <linearGradient
       gradientTransform="matrix(1.1199999,0,0,1.1199999,-27.239997,-1.9800147)"
       gradientUnits="userSpaceOnUse"
       id="_lgradient_4"
       x1="26.5"
       y1="15.999999"
       x2="51.5"
       y2="15.999999">
      <stop
         offset="0%"
         stop-opacity="1"
         style="stop-color:rgb(255,143,195)"
         id="stop15-3" />
      <stop
         offset="100%"
         stop-opacity="1"
         style="stop-color:rgb(161,161,255)"
         id="stop17-6" />
    </linearGradient>
    <linearGradient
       gradientUnits="userSpaceOnUse"
       y2="251"
       x2="502"
       y1="251"
       x1="0"
       id="linearGradient905"
       xlink:href="#linearGradient871"
       inkscape:collect="always" />
    <linearGradient
       inkscape:collect="always"
       xlink:href="#linearGradient873"
       id="linearGradient852"
       gradientUnits="userSpaceOnUse"
       x1="84.992958"
       y1="247.2131"
       x2="147.84399"
       y2="243.6097" />
    <linearGradient
       inkscape:collect="always"
       xlink:href="#linearGradient903"
       id="linearGradient854"
       gradientUnits="userSpaceOnUse"
       x1="0"
       y1="251"
       x2="502"
       y2="251" />
    <linearGradient
       inkscape:collect="always"
       xlink:href="#linearGradient903"
       id="linearGradient858"
       gradientUnits="userSpaceOnUse"
       x1="0"
       y1="251"
       x2="502"
       y2="251" />
    <linearGradient
       inkscape:collect="always"
       xlink:href="#linearGradient903"
       id="linearGradient862"
       gradientUnits="userSpaceOnUse"
       x1="0"
       y1="251"
       x2="502"
       y2="251" />
    <linearGradient
       inkscape:collect="always"
       xlink:href="#linearGradient903"
       id="linearGradient866"
       gradientUnits="userSpaceOnUse"
       x1="0"
       y1="251"
       x2="502"
       y2="251" />
    <linearGradient
       inkscape:collect="always"
       xlink:href="#linearGradient902"
       id="linearGradient868"
       gradientUnits="userSpaceOnUse"
       x1="-74.508606"
       y1="244.76282"
       x2="187.12926"
       y2="248.5061" />
    <linearGradient
       inkscape:collect="always"
       xlink:href="#linearGradient903"
       id="linearGradient870"
       gradientUnits="userSpaceOnUse"
       x1="0"
       y1="251"
       x2="502"
       y2="251" />
    <linearGradient
       inkscape:collect="always"
       xlink:href="#linearGradient875"
       id="linearGradient872"
       gradientUnits="userSpaceOnUse"
       x1="294.66788"
       y1="251.27725"
       x2="499.31436"
       y2="252.33159" />
    <linearGradient
       inkscape:collect="always"
       xlink:href="#linearGradient903"
       id="linearGradient874"
       gradientUnits="userSpaceOnUse"
       x1="0"
       y1="251"
       x2="502"
       y2="251" />
    <linearGradient
       inkscape:collect="always"
       xlink:href="#linearGradient873"
       id="linearGradient881"
       x1="36.900002"
       y1="80.050003"
       x2="96"
       y2="80.050003"
       gradientUnits="userSpaceOnUse" />
    <linearGradient
       inkscape:collect="always"
       xlink:href="#linearGradient873"
       id="linearGradient889"
       x1="36.900002"
       y1="160.5"
       x2="56.900002"
       y2="160.5"
       gradientUnits="userSpaceOnUse" />
    <linearGradient
       gradientUnits="userSpaceOnUse"
       y2="116.7115"
       x2="502"
       y1="116.7115"
       x1="270.97501"
       id="linearGradient890"
       xlink:href="#linearGradient896"
       inkscape:collect="always" />
  </defs>
  <sodipodi:namedview
     inkscape:current-layer="applications-other-3"
     inkscape:window-maximized="1"
     inkscape:window-y="0"
     inkscape:window-x="0"
     inkscape:cy="16"
     inkscape:cx="15.95299"
     inkscape:zoom="10.636102"
     showgrid="false"
     id="namedview19"
     inkscape:window-height="1015"
     inkscape:window-width="1920"
     inkscape:pageshadow="2"
     inkscape:pageopacity="0"
     guidetolerance="10"
     gridtolerance="10"
     objecttolerance="10"
     borderopacity="1"
     inkscape:document-rotation="0"
     bordercolor="#666666"
     pagecolor="#ffffff" />
  <g
     id="applications-other">
    <g
       style="clip-rule:evenodd;fill-rule:evenodd;stroke-linejoin:round;stroke-miterlimit:1.41421"
       id="applications-other-3"
       transform="translate(0.27357099,0.15566293)">
      <path
         style="fill:#ffffc1;fill-opacity:0;stroke-width:1.00213"
         d="M 22,0 V 32 H 54 V 0 Z"
         transform="translate(-21.999998,-1.5e-5)"
         id="rect817"
         inkscape:connector-curvature="0" />
      <g
         style="fill:url(#linearGradient905);fill-opacity:1"
         transform="matrix(0.04803824,0,0,0.04803824,3.465429,3.9487392)"
         id="g26">
        <g
           style="fill:url(#linearGradient854);fill-opacity:1"
           id="g4">
          <path
             style="fill:url(#linearGradient852);fill-opacity:1"
             id="path2"
             d="M 176.062,232.224 H 54.963 C 24.656,232.224 0,207.567 0,177.261 V 56.162 C 0,25.855 24.656,1.199 54.963,1.199 h 121.099 c 30.307,0 54.963,24.656 54.963,54.963 v 121.099 c 0,30.306 -24.656,54.963 -54.963,54.963 z M 54.963,21.199 C 35.684,21.199 20,36.884 20,56.162 v 121.099 c 0,19.278 15.684,34.963 34.963,34.963 h 121.099 c 19.279,0 34.963,-15.685 34.963,-34.963 V 56.162 c 0,-19.278 -15.684,-34.963 -34.963,-34.963 H 54.963 Z" />
        </g>
        <g
           style="fill:url(#linearGradient858);fill-opacity:1"
           id="g8">
          <path
             style="fill:url(#linearGradient889);fill-opacity:1"
             id="path6"
             d="m 46.9,182 c -5.523,0 -10,-4.478 -10,-10 v -23 c 0,-5.522 4.477,-10 10,-10 5.523,0 10,4.478 10,10 v 23 c 0,5.522 -4.477,10 -10,10 z" />
        </g>
        <g
           style="fill:url(#linearGradient862);fill-opacity:1"
           id="g12">
          <path
             style="fill:url(#linearGradient881);fill-opacity:1"
             id="path10"
             d="m 46.9,122 c -5.523,0 -10,-4.478 -10,-10 V 65.1 c 0,-14.888 12.112,-27 27,-27 H 86 c 5.523,0 10,4.478 10,10 0,5.522 -4.477,10 -10,10 H 63.9 c -3.86,0 -7,3.141 -7,7 V 112 c 0,5.522 -4.477,10 -10,10 z" />
        </g>
        <g
           style="fill:url(#linearGradient866);fill-opacity:1"
           id="g16">
          <path
             style="fill:url(#linearGradient890);fill-opacity:1.0"
             id="path14"
             d="M 447.037,232.224 H 325.938 c -30.307,0 -54.963,-24.656 -54.963,-54.963 V 56.162 c 0,-30.307 24.656,-54.963 54.963,-54.963 H 447.037 C 477.344,1.199 502,25.855 502,56.162 v 121.099 c 0,30.306 -24.656,54.963 -54.963,54.963 z M 325.938,21.199 c -19.279,0 -34.963,15.685 -34.963,34.963 v 121.099 c 0,19.278 15.684,34.963 34.963,34.963 h 121.099 c 19.279,0 34.963,-15.685 34.963,-34.963 V 56.162 C 482,36.884 466.316,21.199 447.037,21.199 Z" />
        </g>
        <g
           style="fill:url(#linearGradient870);fill-opacity:1"
           id="g20">
          <path
             style="fill:url(#linearGradient868);fill-opacity:1"
             id="path18"
             d="M 176.062,500.801 H 54.963 C 24.656,500.801 0,476.145 0,445.838 V 324.739 c 0,-30.307 24.656,-54.963 54.963,-54.963 h 121.099 c 30.307,0 54.963,24.656 54.963,54.963 v 121.099 c 0,30.307 -24.656,54.963 -54.963,54.963 z M 54.963,289.776 C 35.684,289.776 20,305.461 20,324.739 v 121.099 c 0,19.278 15.684,34.963 34.963,34.963 h 121.099 c 19.279,0 34.963,-15.685 34.963,-34.963 V 324.739 c 0,-19.278 -15.684,-34.963 -34.963,-34.963 H 54.963 Z" />
        </g>
        <g
           style="fill:url(#linearGradient874);fill-opacity:1"
           id="g24">
          <path
             style="fill:url(#linearGradient872);fill-opacity:1"
             id="path22"
             d="M 447.037,500.801 H 325.938 c -30.307,0 -54.963,-24.656 -54.963,-54.963 V 324.739 c 0,-30.307 24.656,-54.963 54.963,-54.963 h 121.099 c 30.307,0 54.963,24.656 54.963,54.963 v 121.099 c 0,30.307 -24.656,54.963 -54.963,54.963 z M 325.938,289.776 c -19.279,0 -34.963,15.685 -34.963,34.963 v 121.099 c 0,19.278 15.684,34.963 34.963,34.963 h 121.099 c 19.279,0 34.963,-15.685 34.963,-34.963 V 324.739 c 0,-19.278 -15.684,-34.963 -34.963,-34.963 H 325.938 Z" />
        </g>
      </g>
    </g>
  </g>
</svg>
