<?xml version="1.0" encoding="UTF-8" standalone="no"?>
<svg
   xmlns:dc="http://purl.org/dc/elements/1.1/"
   xmlns:cc="http://creativecommons.org/ns#"
   xmlns:rdf="http://www.w3.org/1999/02/22-rdf-syntax-ns#"
   xmlns:svg="http://www.w3.org/2000/svg"
   xmlns="http://www.w3.org/2000/svg"
   xmlns:xlink="http://www.w3.org/1999/xlink"
   xmlns:sodipodi="http://sodipodi.sourceforge.net/DTD/sodipodi-0.dtd"
   xmlns:inkscape="http://www.inkscape.org/namespaces/inkscape"
   width="32"
   height="32"
   version="1.1"
   id="svg12"
   sodipodi:docname="bookmarks.svg"
   inkscape:version="1.0.1 (3bc2e813f5, 2020-09-07)">
  <metadata
     id="metadata18">
    <rdf:RDF>
      <cc:Work
         rdf:about="">
        <dc:format>image/svg+xml</dc:format>
        <dc:type
           rdf:resource="http://purl.org/dc/dcmitype/StillImage" />
      </cc:Work>
    </rdf:RDF>
  </metadata>
  <defs
     id="defs16">
    <linearGradient
       inkscape:collect="always"
       xlink:href="#linearGradient857"
       id="linearGradient854"
       x1="169.26875"
       y1="134.64774"
       x2="119.86368"
       y2="132.72638"
       gradientUnits="userSpaceOnUse"
       gradientTransform="matrix(0.08818282,0,0,0.08818282,2.999648,3)" />
    <linearGradient
       inkscape:collect="always"
       id="linearGradient857">
      <stop
         style="stop-color:#9fc6c5;stop-opacity:1"
         offset="0"
         id="stop853" />
      <stop
         style="stop-color:#56908f;stop-opacity:1"
         offset="1"
         id="stop855" />
    </linearGradient>
    <linearGradient
       id="linearGradient856"
       inkscape:collect="always">
      <stop
         id="stop852"
         offset="0"
         style="stop-color:#a3be8c;stop-opacity:1" />
      <stop
         id="stop854"
         offset="1"
         style="stop-color:#88c0d0;stop-opacity:1" />
    </linearGradient>
    <linearGradient
       y2="243.37729"
       x2="257.73706"
       y1="45.150177"
       x1="36.161591"
       gradientUnits="userSpaceOnUse"
       id="linearGradient855-3"
       xlink:href="#linearGradient856"
       inkscape:collect="always"
       gradientTransform="matrix(0.06104968,0,0,0.06104968,34,12)" />
    <linearGradient
       inkscape:collect="always"
       xlink:href="#linearGradient856"
       id="linearGradient853"
       x1="7"
       y1="6"
       x2="27"
       y2="23"
       gradientUnits="userSpaceOnUse" />
    <linearGradient
       inkscape:collect="always"
       xlink:href="#linearGradient857"
       id="linearGradient862"
       x1="44"
       y1="21"
       x2="42"
       y2="21"
       gradientUnits="userSpaceOnUse" />
  </defs>
  <sodipodi:namedview
     pagecolor="#ffffff"
     bordercolor="#666666"
     borderopacity="1"
     objecttolerance="10"
     gridtolerance="10"
     guidetolerance="10"
     inkscape:pageopacity="0"
     inkscape:pageshadow="2"
     inkscape:window-width="1920"
     inkscape:window-height="1009"
     id="namedview14"
     showgrid="false"
     inkscape:zoom="6.9384853"
     inkscape:cx="34.794962"
     inkscape:cy="8.460825"
     inkscape:window-x="0"
     inkscape:window-y="0"
     inkscape:window-maximized="1"
     inkscape:current-layer="svg12"
     inkscape:document-rotation="0"
     inkscape:lockguides="false">
    <inkscape:grid
       type="xygrid"
       id="grid869"
       originx="0"
       originy="0" />
  </sodipodi:namedview>
  <g
     id="bookmarks">
    <rect
       style="opacity:0.00100002"
       width="32"
       height="32"
       x="0"
       y="0"
       id="rect2" />
    <path
       d="m 20.603408,18.474939 c -0.05573,-0.174338 0.0059,-0.364284 0.153526,-0.472484 l 3.299978,-2.421059 c 0.525393,-0.385447 0.734827,-1.034914 0.533418,-1.654575 -0.201322,-0.619748 -0.752464,-1.022127 -1.404047,-1.025125 l -4.092829,-0.01896 c -0.183068,-8.82e-4 -0.344619,-0.118165 -0.401938,-0.291973 L 17.408721,8.7040175 C 17.204489,8.0852387 16.651583,7.685506 16,7.6854178 v 0 c -0.651583,0 -1.204577,0.3998209 -1.408808,1.0185115 l -0.578215,1.7512227 c -0.09162,0.277423 0.05899,0.576716 0.336505,0.668249 0.277512,0.0918 0.576628,-0.05899 0.668338,-0.336505 L 15.596035,9.0356731 C 15.685452,8.7646873 15.927779,8.7436116 16,8.7436116 c 0.07213,0 0.31446,0.021076 0.403878,0.2920615 l 1.282795,3.8868339 c 0.200175,0.606257 0.763487,1.015514 1.401842,1.018512 l 4.09283,0.01896 c 0.285359,0.0013 0.380332,0.225307 0.402554,0.293913 0.02231,0.06861 0.07716,0.305554 -0.152909,0.474336 l -3.300066,2.421059 c -0.514723,0.377687 -0.729889,1.03994 -0.535446,1.648049 l 1.24717,3.899621 c 0.08695,0.271867 -0.09674,0.43139 -0.155114,0.473718 -0.05838,0.04242 -0.266753,0.1679 -0.498409,0.0011 l -3.322464,-2.390989 c -0.518339,-0.372925 -1.214807,-0.372925 -1.733145,0 l -3.323082,2.39143 c -0.231656,0.166666 -0.44012,0.04127 -0.498409,-0.0011 -0.05838,-0.04242 -0.242062,-0.201851 -0.155202,-0.47363 l 1.246817,-3.900238 c 0.194443,-0.608021 -0.02081,-1.270274 -0.535446,-1.647961 L 8.5683049,14.728315 C 8.3382359,14.559533 8.3930856,14.322498 8.4153959,14.25398 8.4377059,14.18537 8.532679,13.961389 8.8179505,13.960066 l 4.0930935,-0.01896 c 0.29215,-0.0014 0.527951,-0.239328 0.526628,-0.531566 -0.0014,-0.291356 -0.238005,-0.526628 -0.529097,-0.526628 -7.94e-4,0 -0.0017,0 -0.0025,0 l -4.0930938,0.01896 c -0.6515828,0.003 -1.2027255,0.405377 -1.4040468,1.025126 -0.2013214,0.619749 0.00802,1.269215 0.5333297,1.654662 l 3.2998889,2.42106 c 0.14753,0.108288 0.209258,0.298146 0.153527,0.472483 l -1.246729,3.900238 c -0.1984114,0.620631 0.01402,1.269127 0.541178,1.652017 0.264548,0.19215 0.568074,0.28827 0.871775,0.28827 0.301497,0 0.603171,-0.0948 0.866749,-0.28439 l 3.322993,-2.39143 c 0.148588,-0.106966 0.348323,-0.106966 0.496911,0 l 3.322464,2.390989 c 0.52892,0.380597 1.211279,0.379186 1.738524,-0.0039 0.527245,-0.382978 0.739589,-1.031474 0.54109,-1.652193 z"
       id="path2"
       style="clip-rule:evenodd;fill:url(#linearGradient854);fill-opacity:1;fill-rule:evenodd;stroke-width:0.0881828;stroke-linejoin:round;stroke-miterlimit:1.41421" />
    <path
       d="m 15.999648,3 c -7.1682056,0 -13,5.8317944 -13,13 0,7.168205 5.8317944,12.999999 13,12.999999 0.292149,0 0.529096,-0.236947 0.529096,-0.529097 0,-0.29215 -0.236947,-0.529097 -0.529096,-0.529097 C 9.4149482,27.941893 4.0578418,22.584787 4.0578418,16 c 0,-6.584788 5.3571064,-11.9418062 11.9418062,-11.9418062 6.584699,0 11.941805,5.3571064 11.941805,11.9418062 0,4.098737 -2.065241,7.86432 -5.524653,10.072947 -0.246295,0.15723 -0.318517,0.484388 -0.161287,0.730683 0.15723,0.246294 0.4843,0.318516 0.730683,0.161286 3.765406,-2.40404 6.013451,-6.503042 6.013451,-10.964828 C 28.999735,8.8317944 23.167941,3 15.999648,3 Z"
       id="path4-3"
       style="clip-rule:evenodd;fill:url(#linearGradient853);fill-opacity:1;fill-rule:evenodd;stroke-width:0.0881828;stroke-linejoin:round;stroke-miterlimit:1.41421" />
  </g>
  <g
     id="22-22-bookmarks">
    <g
       id="g923">
      <rect
         style="opacity:0.00100002"
         width="22"
         height="22"
         x="32"
         y="10"
         id="rect7" />
      <path
         d="m 46.187226,22.713425 c -0.03858,-0.120695 0.0041,-0.252196 0.106287,-0.327104 l 2.284601,-1.676119 c 0.363734,-0.266848 0.508727,-0.716479 0.36929,-1.145475 C 48.808027,19.13567 48.426467,18.8571 47.975371,18.855024 l -2.833499,-0.01312 c -0.126739,-6.11e-4 -0.238582,-0.08181 -0.278265,-0.202136 l -0.888089,-2.690825 c -0.141391,-0.428386 -0.524173,-0.705124 -0.975269,-0.705185 v 0 c -0.451096,0 -0.833939,0.276799 -0.97533,0.705123 l -0.400302,1.212386 c -0.06343,0.192062 0.04084,0.399265 0.232965,0.462635 0.192124,0.06355 0.399204,-0.04084 0.462696,-0.232966 L 42.72058,16.17855 c 0.06191,-0.187605 0.229669,-0.202196 0.279669,-0.202196 0.04994,0 0.217703,0.01459 0.279608,0.202196 l 0.888089,2.690887 c 0.138583,0.419717 0.528568,0.703048 0.970507,0.705124 l 2.833499,0.01313 c 0.197557,9.15e-4 0.263307,0.155982 0.278692,0.203478 0.01544,0.0475 0.05342,0.211537 -0.10586,0.328386 l -2.284663,1.676119 c -0.356347,0.261476 -0.505308,0.719959 -0.370693,1.140958 l 0.863425,2.699739 c 0.0602,0.188216 -0.06697,0.298655 -0.107386,0.327959 -0.04041,0.02936 -0.184675,0.116238 -0.345053,7.93e-4 l -2.300169,-1.655301 c -0.35885,-0.258179 -0.84102,-0.258179 -1.19987,0 l -2.300596,1.655607 c -0.160378,0.115383 -0.304699,0.02857 -0.345053,-7.33e-4 -0.04041,-0.02937 -0.167581,-0.139743 -0.107447,-0.327898 l 0.863181,-2.700166 c 0.134615,-0.420938 -0.01441,-0.879421 -0.370694,-1.140897 l -2.28454,-1.676119 c -0.159278,-0.116849 -0.121305,-0.28095 -0.10586,-0.328386 0.01545,-0.0475 0.0812,-0.202563 0.278692,-0.203478 l 2.833682,-0.01313 c 0.202257,-9.77e-4 0.365504,-0.165689 0.364589,-0.368008 -9.77e-4,-0.201708 -0.164774,-0.364588 -0.366299,-0.364588 -5.49e-4,0 -0.0012,0 -0.0017,0 l -2.833682,0.01313 c -0.451096,0.0021 -0.832656,0.280646 -0.972033,0.709703 -0.139376,0.429057 0.0056,0.878688 0.369229,1.145536 l 2.28454,1.676119 c 0.102136,0.07497 0.144871,0.206409 0.106287,0.327104 l -0.86312,2.700167 c -0.137362,0.429667 0.0097,0.878627 0.374662,1.143704 0.183149,0.133028 0.393282,0.199572 0.603537,0.199572 0.208729,0 0.41758,-0.06563 0.600057,-0.196885 l 2.300535,-1.655607 c 0.102869,-0.07405 0.241146,-0.07405 0.344015,0 l 2.300169,1.655301 c 0.366176,0.263491 0.838578,0.262514 1.203594,-0.0027 0.365016,-0.265139 0.512024,-0.714098 0.374601,-1.143827 z"
         id="path2-9"
         style="clip-rule:evenodd;fill:url(#linearGradient862);fill-opacity:1;fill-rule:evenodd;stroke-width:0.0610497;stroke-linejoin:round;stroke-miterlimit:1.41421" />
      <path
         d="M 43.000005,12 C 38.037398,12 34,16.037398 34,21.000005 c 0,4.962606 4.037398,9.000005 9.000005,9.000005 0.202257,0 0.366298,-0.164041 0.366298,-0.366298 0,-0.202258 -0.164041,-0.366298 -0.366298,-0.366298 -4.558641,6.1e-5 -8.267409,-3.708707 -8.267409,-8.267409 0,-4.558702 3.708768,-8.267409 8.267409,-8.267409 4.558641,0 8.267409,3.708768 8.267409,8.267409 0,2.837589 -1.429784,5.444532 -3.824763,6.973583 -0.170512,0.108851 -0.220511,0.335346 -0.11166,0.505857 0.108852,0.170512 0.335285,0.220512 0.505858,0.11166 C 50.44367,26.926769 52.00001,24.088997 52.00001,21.000066 52.000071,16.037398 47.962672,12 43.000005,12 Z"
         id="path4"
         style="clip-rule:evenodd;fill:url(#linearGradient855-3);fill-opacity:1;fill-rule:evenodd;stroke-width:0.0610497;stroke-linejoin:round;stroke-miterlimit:1.41421" />
    </g>
  </g>
</svg>
