<?xml version="1.0" encoding="UTF-8" standalone="no"?>
<svg
   xmlns:dc="http://purl.org/dc/elements/1.1/"
   xmlns:cc="http://creativecommons.org/ns#"
   xmlns:rdf="http://www.w3.org/1999/02/22-rdf-syntax-ns#"
   xmlns:svg="http://www.w3.org/2000/svg"
   xmlns="http://www.w3.org/2000/svg"
   xmlns:xlink="http://www.w3.org/1999/xlink"
   xmlns:sodipodi="http://sodipodi.sourceforge.net/DTD/sodipodi-0.dtd"
   xmlns:inkscape="http://www.inkscape.org/namespaces/inkscape"
   width="32"
   height="32"
   version="1.1"
   id="svg12"
   sodipodi:docname="ktorrent.svg"
   inkscape:version="1.0.1 (3bc2e813f5, 2020-09-07)">
  <metadata
     id="metadata18">
    <rdf:RDF>
      <cc:Work
         rdf:about="">
        <dc:format>image/svg+xml</dc:format>
        <dc:type
           rdf:resource="http://purl.org/dc/dcmitype/StillImage" />
      </cc:Work>
    </rdf:RDF>
  </metadata>
  <defs
     id="defs16">
    <linearGradient
       inkscape:collect="always"
       xlink:href="#linearGradient823"
       id="linearGradient825"
       x1="9.8156776"
       y1="17.09322"
       x2="14.195053"
       y2="17.034693"
       gradientUnits="userSpaceOnUse"
       gradientTransform="matrix(1.4117642,0,0,1.4117642,-0.88235,1.1764707)" />
    <linearGradient
       inkscape:collect="always"
       id="linearGradient823">
      <stop
         style="stop-color:#bf616a;stop-opacity:1"
         offset="0"
         id="stop819" />
      <stop
         style="stop-color:#d08770;stop-opacity:1"
         offset="1"
         id="stop821" />
    </linearGradient>
    <linearGradient
       inkscape:collect="always"
       xlink:href="#linearGradient823"
       id="linearGradient825-3"
       x1="9.8156776"
       y1="17.09322"
       x2="14.195053"
       y2="17.034693"
       gradientUnits="userSpaceOnUse"
       gradientTransform="translate(31.125003,11.000003)" />
  </defs>
  <sodipodi:namedview
     pagecolor="#ffffff"
     bordercolor="#666666"
     borderopacity="1"
     objecttolerance="10"
     gridtolerance="10"
     guidetolerance="10"
     inkscape:pageopacity="0"
     inkscape:pageshadow="2"
     inkscape:window-width="1920"
     inkscape:window-height="1009"
     id="namedview14"
     showgrid="false"
     inkscape:zoom="9.8125"
     inkscape:cx="5.0190632"
     inkscape:cy="21.29091"
     inkscape:window-x="0"
     inkscape:window-y="0"
     inkscape:window-maximized="1"
     inkscape:current-layer="svg12"
     inkscape:document-rotation="0">
    <inkscape:grid
       type="xygrid"
       id="grid859"
       originx="0"
       originy="0" />
  </sodipodi:namedview>
  <g
     id="ktorrent">
    <rect
       style="opacity:0.00100002"
       width="32"
       height="32"
       x="0"
       y="0"
       id="rect7" />
    <path
       style="fill:#d3dbe3;fill-opacity:1;stroke:none;stroke-width:1.41175"
       d="m 11.647057,4 v 1.4117649 7.0588211 h 1.411768 V 5.4117649 h 5.647056 v 7.0588211 h 1.411764 V 4 Z M 6.998161,11.483454 6,12.481615 l 6.060664,6.060667 0.01056,-0.01055 3.821709,3.82167 3.810628,-3.810631 6.060622,-6.060625 -0.998161,-0.998161 -6.060662,6.060666 -2.823529,2.823526 -2.823531,-2.823526 z"
       id="rect4282"
       class="ColorScheme-Text" />
    <path
       style="fill:url(#linearGradient825);fill-opacity:1;stroke:none;stroke-width:1.41175"
       id="path2998"
       d="M 26.117644,25.176464 A 10.058822,2.8235284 0 0 1 16.058826,28 10.058822,2.8235284 0 0 1 6,25.176464 10.058822,2.8235284 0 0 1 16.058826,22.352939 10.058822,2.8235284 0 0 1 26.117644,25.176464 Z"
       class="ColorScheme-Text" />
  </g>
  <g
     id="22-22-ktorrent">
    <rect
       style="opacity:0.00100002"
       width="22"
       height="22"
       x="32"
       y="10.000001"
       id="rect2" />
    <path
       style="fill:#d3dbe3;fill-opacity:1;stroke:none;stroke-width:1.00002"
       d="m 40.000004,13 v 1.000007 4.999995 h 0.999994 V 14.000007 H 45 v 4.999995 h 0.999996 V 13 Z m -3.292972,5.300784 -0.707031,0.707031 4.292967,4.292967 0.0079,-0.0078 L 43.007913,26 l 2.699194,-2.699198 4.29294,-4.292943 -0.70703,-0.707031 -4.292966,4.292972 -2,1.999999 -2.000004,-1.999999 z"
       id="rect4282-5"
       class="ColorScheme-Text" />
    <path
       style="fill:url(#linearGradient825-3);fill-opacity:1;stroke:none;stroke-width:1.00002"
       id="path2998-3"
       d="M 50.249996,27.999995 A 7.1249982,1.9999994 0 0 1 43.124999,30 a 7.1249982,1.9999994 0 0 1 -7.124998,-2.000005 7.1249982,1.9999994 0 0 1 7.124998,-2 7.1249982,1.9999994 0 0 1 7.124997,2 z"
       class="ColorScheme-Text" />
  </g>
</svg>
