<?xml version="1.0" encoding="UTF-8" standalone="no"?>
<svg
   xmlns:dc="http://purl.org/dc/elements/1.1/"
   xmlns:cc="http://creativecommons.org/ns#"
   xmlns:rdf="http://www.w3.org/1999/02/22-rdf-syntax-ns#"
   xmlns:svg="http://www.w3.org/2000/svg"
   xmlns="http://www.w3.org/2000/svg"
   xmlns:xlink="http://www.w3.org/1999/xlink"
   xmlns:sodipodi="http://sodipodi.sourceforge.net/DTD/sodipodi-0.dtd"
   xmlns:inkscape="http://www.inkscape.org/namespaces/inkscape"
   version="1.1"
   x="0px"
   y="0px"
   viewBox="0 0 29.688705 28.031168"
   enable-background="new 0 0 1000 1000"
   xml:space="preserve"
   id="svg8"
   sodipodi:docname="start.svg"
   inkscape:version="1.0 (4035a4fb49, 2020-05-01)"
   width="29.688705"
   height="28.031168"><metadata
   id="metadata11"><rdf:RDF><cc:Work
       rdf:about=""><dc:format>image/svg+xml</dc:format><dc:type
         rdf:resource="http://purl.org/dc/dcmitype/StillImage" /></cc:Work></rdf:RDF></metadata><defs
   id="defs12"><linearGradient
     inkscape:collect="always"
     id="linearGradient841"><stop
       style="stop-color:#d08770;stop-opacity:1"
       offset="0"
       id="stop837" /><stop
       style="stop-color:#bf616a;stop-opacity:1"
       offset="1"
       id="stop839" /></linearGradient><linearGradient
     gradientTransform="matrix(0,0.02244669,-0.02244669,0,32.872688,10.325524)"
     inkscape:collect="always"
     xlink:href="#linearGradient841"
     id="linearGradient843"
     x1="492.20001"
     y1="410.50003"
     x2="680.40961"
     y2="645.96533"
     gradientUnits="userSpaceOnUse" /></defs><sodipodi:namedview
   inkscape:document-rotation="0"
   pagecolor="#ffffff"
   bordercolor="#666666"
   borderopacity="1"
   objecttolerance="10"
   gridtolerance="10"
   guidetolerance="10"
   inkscape:pageopacity="0"
   inkscape:pageshadow="2"
   inkscape:window-width="1920"
   inkscape:window-height="1013"
   id="namedview10"
   showgrid="false"
   inkscape:zoom="4.5786044"
   inkscape:cx="64.694503"
   inkscape:cy="-2.2054429"
   inkscape:window-x="0"
   inkscape:window-y="0"
   inkscape:window-maximized="1"
   inkscape:current-layer="svg8" />
<g
   id="start-here-kde"
   transform="translate(-6.7894647,-7.2919916)"><path
     d="m 32.082564,10.549992 h -7.313132 l 3.638609,4.906846 c 2.305275,3.108867 2.251403,8.226712 -0.125702,11.429854 l -2.408529,3.245792 -4.356903,-5.874299 2.141414,-2.8844 2.262627,3.050506 0.240179,-0.325477 c 1.126824,-1.517397 1.129069,-3.979798 0.0045,-5.497195 l -5.97083,-8.051627 h -6.204265 c -3.340067,0 -3.340067,3.530864 -3.340067,3.845118 v 17.589225 c 0,0.312009 0.255892,0.565657 0.567901,0.565657 h 7.310887 L 14.892889,27.643146 C 12.58537,24.534279 12.641486,19.416434 15.016346,16.213292 l 2.406285,-3.245792 4.356902,5.874299 -2.139169,2.8844 -2.262626,-3.05275 -0.242425,0.327721 c -1.126823,1.519641 -1.129068,3.979798 -0.0045,5.49495 l 5.970819,8.049383 h 4.67789 c 0.312009,0.0022 4.868687,0.0022 4.868687,-4.720539 V 11.117893 c 1.1e-5,-0.312009 -0.253636,-0.567901 -0.565645,-0.567901"
     id="path4"
     style="fill:url(#linearGradient843);fill-opacity:1;stroke-width:0.0224467" /></g>
</svg>
