<?xml version="1.0" encoding="UTF-8" standalone="no"?>
<svg
   xmlns:dc="http://purl.org/dc/elements/1.1/"
   xmlns:cc="http://creativecommons.org/ns#"
   xmlns:rdf="http://www.w3.org/1999/02/22-rdf-syntax-ns#"
   xmlns:svg="http://www.w3.org/2000/svg"
   xmlns="http://www.w3.org/2000/svg"
   xmlns:sodipodi="http://sodipodi.sourceforge.net/DTD/sodipodi-0.dtd"
   xmlns:inkscape="http://www.inkscape.org/namespaces/inkscape"
   sodipodi:docname="update.svg"
   inkscape:version="1.0.1 (3bc2e813f5, 2020-09-07)"
   id="svg846"
   version="1.1"
   viewBox="0 0 8.4666665 8.4666699"
   height="32.000011"
   width="32">
  <defs
     id="defs840" />
  <sodipodi:namedview
     inkscape:document-rotation="0"
     inkscape:snap-midpoints="true"
     inkscape:object-paths="true"
     inkscape:snap-intersection-paths="true"
     inkscape:snap-smooth-nodes="true"
     inkscape:window-maximized="1"
     inkscape:window-y="0"
     inkscape:window-x="0"
     inkscape:window-height="1009"
     inkscape:window-width="1920"
     units="px"
     showgrid="false"
     inkscape:current-layer="layer1"
     inkscape:document-units="px"
     inkscape:cy="9.1375835"
     inkscape:cx="81.601663"
     inkscape:zoom="5.6568543"
     inkscape:pageshadow="2"
     inkscape:pageopacity="0.0"
     borderopacity="1.0"
     bordercolor="#666666"
     pagecolor="#ffffff"
     id="base"
     inkscape:lockguides="false">
    <inkscape:grid
       id="grid1394"
       type="xygrid"
       originx="4.9999999e-06"
       originy="-5.8208294" />
  </sodipodi:namedview>
  <metadata
     id="metadata843">
    <rdf:RDF>
      <cc:Work
         rdf:about="">
        <dc:format>image/svg+xml</dc:format>
        <dc:type
           rdf:resource="http://purl.org/dc/dcmitype/StillImage" />
        <dc:title />
      </cc:Work>
    </rdf:RDF>
  </metadata>
  <style
     type="text/css"
     id="current-color-scheme">
      .ColorScheme-Text {
        color:#7B7C7E;
      }
      .ColorScheme-Background{
        color:#EFF0F1;
      }
      .ColorScheme-Highlight{
        color:#3DAEE6;
      }
      .ColorScheme-ViewText {
        color:#7B7C7E;
      }
      .ColorScheme-ViewBackground{
        color:#FCFCFC;
      }
      .ColorScheme-ViewHover {
        color:#3DAEE6;
      }
      .ColorScheme-ViewFocus{
        color:#1E92FF;
      }
      .ColorScheme-ButtonText {
        color:#7B7C7E;
      }
      .ColorScheme-ButtonBackground{
        color:#EFF0F1;
      }
      .ColorScheme-ButtonHover {
        color:#3DAEE6;
      }
      .ColorScheme-ButtonFocus{
        color:#1E92FF;
      }
     .ColorScheme-NegativeText {
            color:#da4453;
        }
      .ColorScheme-NeutralText {
        color:#f67400;
      }
</style>
  <g
     transform="translate(0,-297)"
     id="layer1"
     inkscape:groupmode="layer"
     inkscape:label="Layer 1">
    <g
       id="update-none">
      <rect
         style="opacity:0.003;fill:#000000;fill-opacity:1;stroke:none;stroke-width:0.157018;stroke-miterlimit:4;stroke-dasharray:none;stroke-opacity:1"
         id="rect1396-6"
         width="8.4666672"
         height="8.46667"
         x="0"
         y="297"
         ry="1.8892064e-06" />
      <path
         d="m 7.5456111,302.72464 -0.8106257,0.25778 -0.2602108,-0.81063 0.355054,0.18239 a 2.776393,2.776393 0 0 0 -4.1033873,-3.32356 l -0.2172476,-0.32993 a 3.1760315,3.1760315 0 0 1 4.6773103,3.83994 z"
         id="path4-36"
         style="fill:#d3dae3;fill-opacity:1;stroke-width:0.0810626" />
      <path
         d="m 5.9624591,304.03056 a 3.1760315,3.1760315 0 0 1 -4.6773102,-3.83994 l -0.35910723,-0.18482 0.81062573,-0.25778 0.2602108,0.81063 -0.3542434,-0.18321 a 2.776393,2.776393 0 0 0 4.1033873,3.32357 z"
         id="path6"
         style="fill:#d3dae3;fill-opacity:1;stroke-width:0.0810626" />
      <path
         d="m 4.2836533,302.41984 v 0.90952 h 0.038099 0.042963 c 0.024319,0 0.049448,0 0.073767,-0.005 0.024319,-0.005 0.044584,-0.006 0.066471,-0.01 l 0.042153,-0.006 c 0.023508,0 0.046206,-0.006 0.069714,-0.0105 0.023508,-0.004 0.046206,-0.0113 0.069714,-0.017 l 0.048637,-0.0122 c 0.018644,-0.005 0.037289,-0.008 0.055123,-0.0138 0.017834,-0.006 0.049448,-0.017 0.073767,-0.0251 0.024319,-0.008 0.058365,-0.0195 0.087548,-0.0308 a 3.9055946,3.9055946 0 0 0 0.303174,-0.77658 z"
         id="path8"
         style="opacity:1;fill:#6aa6a5;fill-opacity:1;stroke-width:0.0810626" />
      <path
         d="m 4.1879995,302.32419 v -0.91115 H 3.1066248 a 3.9809828,3.9809828 0 0 0 0.1159195,0.91115 z"
         id="path10"
         style="opacity:1;fill:#6aa6a5;fill-opacity:1;stroke-width:0.0810626" />
      <path
         d="m 3.6465015,303.23938 c 0.025129,0.008 0.050259,0.017 0.075388,0.0235 l 0.037289,0.008 0.06485,0.0146 c 0.024319,0.005 0.049448,0.0113 0.073767,0.0162 l 0.051069,0.006 0.053501,0.006 c 0.025129,0 0.049448,0.007 0.074578,0.009 h 0.059176 0.045395 0.00486 v -0.45193 -0.45192 H 3.2484843 c 0.074975,0.27442 0.1793394,0.53995 0.3112803,0.79198 0.028372,0.008 0.057554,0.0187 0.086737,0.0276 z"
         id="path12"
         style="opacity:1;fill:#6aa6a5;fill-opacity:1;stroke-width:0.0810626"
         sodipodi:nodetypes="ccccccccccccccccc" />
      <path
         d="m 4.1879995,301.31739 v -0.91114 H 3.2225443 a 4.017461,4.017461 0 0 0 -0.1159195,0.91114 z"
         id="path14"
         style="opacity:1;fill:#6aa6a5;fill-opacity:1;stroke-width:0.0810626" />
      <path
         d="m 5.490675,301.41304 a 4.0871748,4.0871748 0 0 1 -0.1134876,0.91115 H 5.951921 a 1.9576611,1.9576611 0 0 0 0.2488621,-0.91115 z"
         id="path16"
         style="opacity:1;fill:#6aa6a5;fill-opacity:1;stroke-width:0.0810626" />
      <path
         d="M 3.010971,301.41304 H 2.2708697 a 1.9576611,1.9576611 0 0 0 0.2488621,0.91115 H 3.1252692 A 4.075826,4.075826 0 0 1 3.010971,301.41304 Z"
         id="path18"
         style="opacity:1;fill:#6aa6a5;fill-opacity:1;stroke-width:0.0810626" />
      <path
         d="m 3.010971,301.31739 a 4.1123042,4.1123042 0 0 1 0.1134876,-0.91114 H 2.5197318 a 1.9576611,1.9576611 0 0 0 -0.2488621,0.91114 z"
         id="path20"
         style="opacity:1;fill:#6aa6a5;fill-opacity:1;stroke-width:0.0810626" />
      <path
         d="m 4.1879995,300.31059 v -0.9079 h -0.065661 -0.042152 c -0.046206,0 -0.092411,0.01 -0.1378064,0.017 l -0.040531,0.006 c -0.042153,0.007 -0.081063,0.017 -0.1248363,0.0267 l -0.053501,0.0122 c -0.035668,0.01 -0.069714,0.0219 -0.1045708,0.0332 -0.020266,0.006 -0.040531,0.0122 -0.059986,0.0195 a 3.9542322,3.9542322 0 0 0 -0.3112802,0.79036 z"
         id="path22"
         style="opacity:1;fill:#6aa6a5;fill-opacity:1;stroke-width:0.0810626" />
      <path
         d="m 3.4260113,303.15589 c -0.1161037,-0.23604 -0.208953,-0.48283 -0.277234,-0.73686 h -0.567438 c 0.2041504,0.32233 0.4976207,0.57834 0.844672,0.73686 z"
         id="path24"
         style="opacity:1;fill:#6aa6a5;fill-opacity:1;stroke-width:0.0810626"
         sodipodi:nodetypes="cccc" />
      <path
         d="m 4.2836533,301.41304 v 0.91115 h 0.9954484 a 3.9907103,3.9907103 0 0 0 0.1159195,-0.91115 z"
         id="path26"
         style="opacity:1;fill:#6aa6a5;fill-opacity:1;stroke-width:0.0810626" />
      <path
         d="m 2.5780968,300.31059 h 0.567438 a 4.0531285,4.0531285 0 0 1 0.2796659,-0.73848 1.9657673,1.9657673 0 0 0 -0.8471039,0.73848 z"
         id="path28"
         style="opacity:1;fill:#6aa6a5;fill-opacity:1;stroke-width:0.0810626" />
      <path
         d="m 5.3763768,300.40625 a 4.0855535,4.0855535 0 0 1 0.1142982,0.91114 H 6.2007831 A 1.9568504,1.9568504 0 0 0 5.951921,300.40625 Z"
         id="path30"
         style="opacity:1;fill:#6aa6a5;fill-opacity:1;stroke-width:0.0810626" />
      <path
         d="m 5.3528686,302.41984 a 3.9898997,3.9898997 0 0 1 -0.2675065,0.71903 1.9738736,1.9738736 0 0 0 0.8106257,-0.71741 z"
         id="path32"
         style="opacity:1;fill:#6aa6a5;fill-opacity:1;stroke-width:0.0810626" />
      <path
         d="m 4.2836533,300.40625 v 0.91114 h 1.1113679 a 3.9890891,3.9890891 0 0 0 -0.1159195,-0.91114 z"
         id="path34"
         style="opacity:1;fill:#6aa6a5;fill-opacity:1;stroke-width:0.0810626" />
      <path
         d="m 4.8583869,299.5024 c -0.022698,-0.007 -0.044584,-0.0162 -0.067282,-0.0227 -0.040531,-0.0122 -0.081063,-0.0211 -0.1224045,-0.0308 l -0.049448,-0.0113 c -0.043774,-0.009 -0.088358,-0.0146 -0.1329427,-0.0203 v 0 l -0.045395,-0.007 c -0.040531,-0.004 -0.081063,-0.006 -0.1215938,-0.007 h -0.035668 v 0.9079 h 0.9727509 a 3.9039734,3.9039734 0 0 0 -0.3031741,-0.77577 c -0.033236,-0.0122 -0.064039,-0.0219 -0.094843,-0.0324 z"
         id="path36"
         style="opacity:1;fill:#6aa6a5;fill-opacity:1;stroke-width:0.0810626" />
      <path
         d="m 5.0853621,299.594 a 3.9890891,3.9890891 0 0 1 0.2675065,0.71659 H 5.8927453 A 1.9738736,1.9738736 0 0 0 5.0853621,299.594 Z"
         id="path38"
         style="opacity:1;fill:#6aa6a5;fill-opacity:1;stroke-width:0.0810626" />
    </g>
    <g
       id="update-high">
      <rect
         style="opacity:0.003;fill:#000000;fill-opacity:1;stroke:none;stroke-width:0.157018;stroke-miterlimit:4;stroke-dasharray:none;stroke-opacity:1"
         id="rect1396-6-9"
         width="8.4666672"
         height="8.46667"
         x="8.4666672"
         y="296.99997"
         ry="1.8892064e-06" />
      <ellipse
         ry="1.0583333"
         rx="0.92604166"
         cy="303.08539"
         cx="14.684375"
         id="path844"
         style="opacity:0;fill:#000000;fill-opacity:1;stroke:none;stroke-width:0.10795;stroke-miterlimit:4;stroke-dasharray:none;stroke-opacity:1" />
      <path
         d="m 16.012278,302.59232 -0.810625,0.25778 -0.260211,-0.81063 0.355054,0.18239 a 2.776393,2.776393 0 0 0 -4.103387,-3.32356 l -0.217248,-0.32993 a 3.1760315,3.1760315 0 0 1 4.67731,3.83994 z"
         id="path4-75"
         style="fill:#d3dae3;fill-opacity:1;stroke-width:0.0810626" />
      <path
         d="M 14.429126,303.89824 A 3.1760315,3.1760315 0 0 1 9.7518161,300.0583 l -0.3591072,-0.18482 0.8106261,-0.25778 0.26021,0.81063 -0.354243,-0.18321 a 2.776393,2.776393 0 0 0 4.103387,3.32357 z"
         id="path6-3"
         style="fill:#d3dae3;fill-opacity:1;stroke-width:0.0810626" />
      <path
         d="m 12.750321,302.28752 v 0.90952 h 0.0381 0.04296 c 0.02432,0 0.04945,0 0.07377,-0.005 0.02432,-0.005 0.04458,-0.006 0.06647,-0.01 l 0.04215,-0.006 c 0.02351,0 0.04621,-0.006 0.06971,-0.0105 0.02351,-0.004 0.04621,-0.0113 0.06971,-0.017 l 0.04864,-0.0122 c 0.01864,-0.005 0.03729,-0.008 0.05512,-0.0138 0.01783,-0.006 0.04945,-0.017 0.07377,-0.0251 0.02432,-0.008 0.05837,-0.0195 0.08755,-0.0308 a 3.9055946,3.9055946 0 0 0 0.303174,-0.77658 z"
         id="path8-5"
         style="fill:#e5005c;fill-opacity:1;stroke-width:0.0810626" />
      <path
         d="m 12.654667,302.19187 v -0.91115 h -1.081375 a 3.9809828,3.9809828 0 0 0 0.11592,0.91115 z"
         id="path10-6"
         style="fill:#e5005c;fill-opacity:1;stroke-width:0.0810626" />
      <path
         d="m 12.113169,303.10706 c 0.02513,0.008 0.05026,0.017 0.07539,0.0235 l 0.03729,0.008 0.06485,0.0146 c 0.02432,0.005 0.04945,0.0113 0.07377,0.0162 l 0.05107,0.006 0.0535,0.006 c 0.02513,0 0.04945,0.007 0.07458,0.009 h 0.05918 0.0454 0.0049 v -0.90385 h -0.937893 a 3.9550428,3.9550428 0 0 0 0.31128,0.79198 c 0.02837,0.008 0.05755,0.0186 0.08674,0.0276 z"
         id="path12-2"
         style="fill:#e5005c;fill-opacity:1;stroke-width:0.0810626" />
      <path
         d="m 12.654667,301.18507 v -0.91114 h -0.965455 c -0.07334,0.29828 -0.112239,0.60399 -0.11592,0.91114 z"
         id="path14-9"
         style="fill:#e5005c;fill-opacity:1;stroke-width:0.0810626"
         sodipodi:nodetypes="ccccc" />
      <path
         d="m 13.957342,301.28072 a 4.0871748,4.0871748 0 0 1 -0.113487,0.91115 h 0.574733 a 1.9576611,1.9576611 0 0 0 0.248862,-0.91115 z"
         id="path16-1"
         style="fill:#e5005c;fill-opacity:1;stroke-width:0.0810626" />
      <path
         d="m 11.477638,301.28072 h -0.740101 a 1.9576611,1.9576611 0 0 0 0.248862,0.91115 h 0.605537 a 4.075826,4.075826 0 0 1 -0.114298,-0.91115 z"
         id="path18-2"
         style="fill:#e5005c;fill-opacity:1;stroke-width:0.0810626" />
      <path
         d="m 11.477638,301.18507 a 4.1123042,4.1123042 0 0 1 0.113488,-0.91114 h -0.604727 a 1.9576611,1.9576611 0 0 0 -0.248862,0.91114 z"
         id="path20-7"
         style="fill:#e5005c;fill-opacity:1;stroke-width:0.0810626" />
      <path
         d="m 12.654667,300.17827 v -0.9079 h -0.06566 -0.04215 c -0.04621,0 -0.09241,0.01 -0.137806,0.017 l -0.04053,0.006 c -0.04215,0.007 -0.08106,0.017 -0.124837,0.0267 l -0.0535,0.0122 c -0.03567,0.01 -0.06971,0.0219 -0.104571,0.0332 -0.02027,0.006 -0.04053,0.0122 -0.05999,0.0195 a 3.9542322,3.9542322 0 0 0 -0.31128,0.79036 z"
         id="path22-0"
         style="fill:#e5005c;fill-opacity:1;stroke-width:0.0810626" />
      <path
         d="m 11.892679,303.02357 a 4.0531285,4.0531285 0 0 1 -0.277234,-0.73686 h -0.567438 a 1.9673886,1.9673886 0 0 0 0.844672,0.73686 z"
         id="path24-9"
         style="fill:#e5005c;fill-opacity:1;stroke-width:0.0810626" />
      <path
         d="m 12.750321,301.28072 v 0.91115 h 0.995448 a 3.9907103,3.9907103 0 0 0 0.115919,-0.91115 z"
         id="path26-3"
         style="fill:#e5005c;fill-opacity:1;stroke-width:0.0810626" />
      <path
         d="m 11.044764,300.17827 h 0.567438 a 4.0531285,4.0531285 0 0 1 0.279666,-0.73848 1.9657673,1.9657673 0 0 0 -0.847104,0.73848 z"
         id="path28-6"
         style="fill:#e5005c;fill-opacity:1;stroke-width:0.0810626" />
      <path
         d="m 13.843044,300.27393 c 0.07222,0.29845 0.11056,0.6041 0.114298,0.91114 h 0.710108 c -0.0073,-0.31948 -0.09276,-0.6323 -0.248862,-0.91114 z"
         id="path30-0"
         style="fill:#e5005c;fill-opacity:1;stroke-width:0.0810626"
         sodipodi:nodetypes="ccccc" />
      <path
         d="m 13.819536,302.28752 a 3.9898997,3.9898997 0 0 1 -0.267507,0.71903 1.9738736,1.9738736 0 0 0 0.810626,-0.71741 z"
         id="path32-6"
         style="fill:#e5005c;fill-opacity:1;stroke-width:0.0810626" />
      <path
         d="m 12.750321,300.27393 v 0.91114 h 1.111367 a 3.9890891,3.9890891 0 0 0 -0.115919,-0.91114 z"
         id="path34-2"
         style="fill:#e5005c;fill-opacity:1;stroke-width:0.0810626" />
      <path
         d="m 13.325054,299.37008 c -0.0227,-0.007 -0.04458,-0.0162 -0.06728,-0.0227 -0.04053,-0.0122 -0.08106,-0.0211 -0.122404,-0.0308 l -0.04945,-0.0113 c -0.04377,-0.009 -0.08836,-0.0146 -0.132943,-0.0203 v 0 l -0.0454,-0.007 c -0.04053,-0.004 -0.08106,-0.006 -0.121594,-0.007 h -0.03567 v 0.9079 h 0.97275 a 3.9039734,3.9039734 0 0 0 -0.303174,-0.77577 c -0.03324,-0.0121 -0.06404,-0.0219 -0.09484,-0.0324 z"
         id="path36-6"
         style="fill:#e5005c;fill-opacity:1;stroke-width:0.0810626" />
      <path
         d="m 13.552029,299.46168 a 3.9890891,3.9890891 0 0 1 0.267507,0.71659 h 0.539877 a 1.9738736,1.9738736 0 0 0 -0.807384,-0.71659 z"
         id="path38-1"
         style="fill:#e5005c;fill-opacity:1;stroke-width:0.0810626" />
    </g>
    <g
       id="update-medium">
      <rect
         style="opacity:0.003;fill:#000000;fill-opacity:1;stroke:none;stroke-width:0.157018;stroke-miterlimit:4;stroke-dasharray:none;stroke-opacity:1"
         id="rect1396-6-9-5"
         width="8.4666672"
         height="8.46667"
         x="16.933332"
         y="296.99997"
         ry="1.8892064e-06" />
      <path
         d="m 24.478943,302.59232 -0.810625,0.25778 -0.260211,-0.81063 0.355054,0.18239 a 2.776393,2.776393 0 0 0 -4.103387,-3.32356 l -0.217248,-0.32993 a 3.1760315,3.1760315 0 0 1 4.67731,3.83994 z"
         id="path4-9"
         style="fill:#d3dae3;fill-opacity:1;stroke-width:0.0810626" />
      <path
         d="m 22.895791,303.89824 a 3.1760315,3.1760315 0 0 1 -4.67731,-3.83994 l -0.359107,-0.18482 0.810626,-0.25778 0.260211,0.81063 -0.354244,-0.18321 a 2.776393,2.776393 0 0 0 4.103387,3.32357 z"
         id="path6-2"
         style="fill:#d3dae3;fill-opacity:1;stroke-width:0.0810626" />
      <path
         d="m 21.216986,302.28752 v 0.90952 h 0.0381 0.04296 c 0.02432,0 0.04945,0 0.07377,-0.005 0.02432,-0.005 0.04458,-0.006 0.06647,-0.01 l 0.04215,-0.006 c 0.02351,0 0.04621,-0.006 0.06971,-0.0105 0.02351,-0.004 0.0462,-0.0113 0.06971,-0.017 l 0.04864,-0.0122 c 0.01865,-0.005 0.03729,-0.008 0.05512,-0.0138 0.01783,-0.006 0.04945,-0.017 0.07377,-0.0251 0.02432,-0.008 0.05836,-0.0195 0.08755,-0.0308 a 3.9055946,3.9055946 0 0 0 0.303174,-0.77658 z"
         id="path8-0"
         style="fill:#ff6600;fill-opacity:1;stroke-width:0.0810626" />
      <path
         d="m 21.121332,302.19187 v -0.91115 h -1.081375 a 3.9809828,3.9809828 0 0 0 0.11592,0.91115 z"
         id="path10-2"
         style="fill:#ff6600;fill-opacity:1;stroke-width:0.0810626" />
      <path
         d="m 20.579834,303.10706 c 0.02513,0.008 0.05026,0.017 0.07539,0.0235 l 0.03729,0.008 0.06485,0.0146 c 0.02432,0.005 0.04945,0.0113 0.07377,0.0162 l 0.05107,0.006 0.0535,0.006 c 0.02513,0 0.04945,0.007 0.07458,0.009 h 0.05918 0.0454 0.0049 v -0.90385 H 20.18187 a 3.9550428,3.9550428 0 0 0 0.31128,0.79198 c 0.02837,0.008 0.05755,0.0186 0.08674,0.0276 z"
         id="path12-3"
         style="fill:#ff6600;fill-opacity:1;stroke-width:0.0810626" />
      <path
         d="m 21.121332,301.18507 v -0.91114 h -0.965455 a 4.017461,4.017461 0 0 0 -0.11592,0.91114 z"
         id="path14-7"
         style="fill:#ff6600;fill-opacity:1;stroke-width:0.0810626" />
      <path
         d="m 22.424007,301.28072 a 4.0871748,4.0871748 0 0 1 -0.113487,0.91115 h 0.574733 a 1.9576611,1.9576611 0 0 0 0.248862,-0.91115 z"
         id="path16-5"
         style="fill:#ff6600;fill-opacity:1;stroke-width:0.0810626" />
      <path
         d="m 19.944303,301.28072 h -0.740101 a 1.9576611,1.9576611 0 0 0 0.248862,0.91115 h 0.605538 a 4.075826,4.075826 0 0 1 -0.114299,-0.91115 z"
         id="path18-9"
         style="fill:#ff6600;fill-opacity:1;stroke-width:0.0810626" />
      <path
         d="m 19.944303,301.18507 a 4.1123042,4.1123042 0 0 1 0.113488,-0.91114 h -0.604727 a 1.9576611,1.9576611 0 0 0 -0.248862,0.91114 z"
         id="path20-2"
         style="fill:#ff6600;fill-opacity:1;stroke-width:0.0810626" />
      <path
         d="m 21.121332,300.17827 v -0.9079 h -0.06566 -0.04215 c -0.04621,0 -0.09241,0.01 -0.137807,0.017 l -0.04053,0.006 c -0.04215,0.007 -0.08106,0.017 -0.124836,0.0267 l -0.0535,0.0122 c -0.03567,0.01 -0.06971,0.0219 -0.10457,0.0332 -0.02027,0.006 -0.04053,0.0122 -0.05999,0.0195 a 3.9542322,3.9542322 0 0 0 -0.31128,0.79036 z"
         id="path22-2"
         style="fill:#ff6600;fill-opacity:1;stroke-width:0.0810626" />
      <path
         d="m 20.359344,303.02357 a 4.0531285,4.0531285 0 0 1 -0.277234,-0.73686 h -0.567438 a 1.9673886,1.9673886 0 0 0 0.844672,0.73686 z"
         id="path24-8"
         style="fill:#ff6600;fill-opacity:1;stroke-width:0.0810626" />
      <path
         d="m 21.216986,301.28072 v 0.91115 h 0.995448 a 3.9907103,3.9907103 0 0 0 0.115919,-0.91115 z"
         id="path26-9"
         style="fill:#ff6600;fill-opacity:1;stroke-width:0.0810626" />
      <path
         d="m 19.511429,300.17827 h 0.567438 a 4.0531285,4.0531285 0 0 1 0.279666,-0.73848 1.9657673,1.9657673 0 0 0 -0.847104,0.73848 z"
         id="path28-7"
         style="fill:#ff6600;fill-opacity:1;stroke-width:0.0810626" />
      <path
         d="m 22.309709,300.27393 a 4.0855535,4.0855535 0 0 1 0.114298,0.91114 h 0.710108 a 1.9568504,1.9568504 0 0 0 -0.248862,-0.91114 z"
         id="path30-3"
         style="fill:#ff6600;fill-opacity:1;stroke-width:0.0810626" />
      <path
         d="m 22.286201,302.28752 a 3.9898997,3.9898997 0 0 1 -0.267507,0.71903 1.9738736,1.9738736 0 0 0 0.810626,-0.71741 z"
         id="path32-61"
         style="fill:#ff6600;fill-opacity:1;stroke-width:0.0810626" />
      <path
         d="m 21.216986,300.27393 v 0.91114 h 1.111367 a 3.9890891,3.9890891 0 0 0 -0.115919,-0.91114 z"
         id="path34-29"
         style="fill:#ff6600;fill-opacity:1;stroke-width:0.0810626" />
      <path
         d="m 21.791719,299.37008 c -0.0227,-0.007 -0.04458,-0.0162 -0.06728,-0.0227 -0.04053,-0.0122 -0.08106,-0.0211 -0.122404,-0.0308 l -0.04945,-0.0113 c -0.04377,-0.009 -0.08836,-0.0146 -0.132943,-0.0203 v 0 l -0.04539,-0.007 c -0.04053,-0.004 -0.08106,-0.006 -0.121594,-0.007 h -0.03567 v 0.9079 h 0.97275 a 3.9039734,3.9039734 0 0 0 -0.303174,-0.77577 c -0.03324,-0.0121 -0.06404,-0.0219 -0.09484,-0.0324 z"
         id="path36-3"
         style="fill:#ff6600;fill-opacity:1;stroke-width:0.0810626" />
      <path
         d="m 22.018694,299.46168 a 3.9890891,3.9890891 0 0 1 0.267507,0.71659 h 0.539877 a 1.9738736,1.9738736 0 0 0 -0.807384,-0.71659 z"
         id="path38-19"
         style="fill:#ff6600;fill-opacity:1;stroke-width:0.0810626" />
    </g>
    <g
       id="update-low">
      <rect
         style="opacity:0.003;fill:#000000;fill-opacity:1;stroke:none;stroke-width:0.157018;stroke-miterlimit:4;stroke-dasharray:none;stroke-opacity:1"
         id="rect1396-6-9-1"
         width="8.4666672"
         height="8.46667"
         x="25.4"
         y="296.99997"
         ry="1.8892064e-06" />
      <path
         d="m 32.945611,302.59232 -0.810625,0.25778 -0.260211,-0.81063 0.355054,0.18239 a 2.776393,2.776393 0 0 0 -4.103387,-3.32356 l -0.217248,-0.32993 a 3.1760315,3.1760315 0 0 1 4.67731,3.83994 z"
         id="path4-4"
         style="fill:#d3dae3;fill-opacity:1;stroke-width:0.0810626" />
      <path
         d="m 31.362459,303.89824 a 3.1760315,3.1760315 0 0 1 -4.67731,-3.83994 l -0.359107,-0.18482 0.810626,-0.25778 0.260211,0.81063 -0.354244,-0.18321 a 2.776393,2.776393 0 0 0 4.103387,3.32357 z"
         id="path6-5"
         style="fill:#d3dae3;fill-opacity:1;stroke-width:0.0810626" />
      <path
         d="m 29.683654,302.28752 v 0.90952 h 0.0381 0.04296 c 0.02432,0 0.04945,0 0.07377,-0.005 0.02432,-0.005 0.04459,-0.006 0.06647,-0.01 l 0.04215,-0.006 c 0.02351,0 0.04621,-0.006 0.06971,-0.0105 0.02351,-0.004 0.04621,-0.0113 0.06971,-0.017 l 0.04864,-0.0122 c 0.01864,-0.005 0.03729,-0.008 0.05512,-0.0138 0.01783,-0.006 0.04945,-0.017 0.07377,-0.0251 0.02432,-0.008 0.05837,-0.0195 0.08755,-0.0308 a 3.9055946,3.9055946 0 0 0 0.303174,-0.77658 z"
         id="path8-03"
         style="fill:#0066ff;fill-opacity:1;stroke-width:0.0810626" />
      <path
         d="m 29.588,302.19187 v -0.91115 h -1.081375 a 3.9809828,3.9809828 0 0 0 0.11592,0.91115 z"
         id="path10-61"
         style="fill:#0066ff;fill-opacity:1;stroke-width:0.0810626" />
      <path
         d="m 29.046502,303.10706 c 0.02513,0.008 0.05026,0.017 0.07539,0.0235 l 0.03729,0.008 0.06485,0.0146 c 0.02432,0.005 0.04945,0.0113 0.07377,0.0162 l 0.05107,0.006 0.0535,0.006 c 0.02513,0 0.04945,0.007 0.07458,0.009 h 0.05918 0.04539 0.0049 v -0.90385 h -0.937894 a 3.9550428,3.9550428 0 0 0 0.31128,0.79198 c 0.02837,0.008 0.05755,0.0186 0.08674,0.0276 z"
         id="path12-0"
         style="fill:#0066ff;fill-opacity:1;stroke-width:0.0810626" />
      <path
         d="m 29.588,301.18507 v -0.91114 h -0.965455 a 4.017461,4.017461 0 0 0 -0.11592,0.91114 z"
         id="path14-6"
         style="fill:#0066ff;fill-opacity:1;stroke-width:0.0810626" />
      <path
         d="m 30.890675,301.28072 a 4.0871748,4.0871748 0 0 1 -0.113487,0.91115 h 0.574733 a 1.9576611,1.9576611 0 0 0 0.248862,-0.91115 z"
         id="path16-3"
         style="fill:#0066ff;fill-opacity:1;stroke-width:0.0810626" />
      <path
         d="M 28.410971,301.28072 H 27.67087 a 1.9576611,1.9576611 0 0 0 0.248862,0.91115 h 0.605538 a 4.075826,4.075826 0 0 1 -0.114299,-0.91115 z"
         id="path18-20"
         style="fill:#0066ff;fill-opacity:1;stroke-width:0.0810626" />
      <path
         d="m 28.410971,301.18507 a 4.1123042,4.1123042 0 0 1 0.113488,-0.91114 h -0.604727 a 1.9576611,1.9576611 0 0 0 -0.248862,0.91114 z"
         id="path20-6"
         style="fill:#0066ff;fill-opacity:1;stroke-width:0.0810626" />
      <path
         d="m 29.588,300.17827 v -0.9079 h -0.06566 -0.04215 c -0.04621,0 -0.09241,0.01 -0.137807,0.017 l -0.04053,0.006 c -0.04215,0.007 -0.08106,0.017 -0.124836,0.0267 l -0.0535,0.0122 c -0.03567,0.01 -0.06971,0.0219 -0.10457,0.0332 -0.02027,0.006 -0.04053,0.0122 -0.05999,0.0195 a 3.9542322,3.9542322 0 0 0 -0.31128,0.79036 z"
         id="path22-1"
         style="fill:#0066ff;fill-opacity:1;stroke-width:0.0810626" />
      <path
         d="m 28.826012,303.02357 a 4.0531285,4.0531285 0 0 1 -0.277234,-0.73686 H 27.98134 a 1.9673886,1.9673886 0 0 0 0.844672,0.73686 z"
         id="path24-5"
         style="fill:#0066ff;fill-opacity:1;stroke-width:0.0810626" />
      <path
         d="m 29.683654,301.28072 v 0.91115 h 0.995448 a 3.9907103,3.9907103 0 0 0 0.115919,-0.91115 z"
         id="path26-5"
         style="fill:#0066ff;fill-opacity:1;stroke-width:0.0810626" />
      <path
         d="m 27.978097,300.17827 h 0.567438 a 4.0531285,4.0531285 0 0 1 0.279666,-0.73848 1.9657673,1.9657673 0 0 0 -0.847104,0.73848 z"
         id="path28-4"
         style="fill:#0066ff;fill-opacity:1;stroke-width:0.0810626" />
      <path
         d="m 30.776377,300.27393 a 4.0855535,4.0855535 0 0 1 0.114298,0.91114 h 0.710108 a 1.9568504,1.9568504 0 0 0 -0.248862,-0.91114 z"
         id="path30-7"
         style="fill:#0066ff;fill-opacity:1;stroke-width:0.0810626" />
      <path
         d="m 30.752869,302.28752 a 3.9898997,3.9898997 0 0 1 -0.267507,0.71903 1.9738736,1.9738736 0 0 0 0.810626,-0.71741 z"
         id="path32-65"
         style="fill:#0066ff;fill-opacity:1;stroke-width:0.0810626" />
      <path
         d="m 29.683654,300.27393 v 0.91114 h 1.111367 a 3.9890891,3.9890891 0 0 0 -0.115919,-0.91114 z"
         id="path34-6"
         style="fill:#0066ff;fill-opacity:1;stroke-width:0.0810626" />
      <path
         d="m 30.258387,299.37008 c -0.0227,-0.007 -0.04458,-0.0162 -0.06728,-0.0227 -0.04053,-0.0122 -0.08106,-0.0211 -0.122404,-0.0308 l -0.04945,-0.0113 c -0.04377,-0.009 -0.08836,-0.0146 -0.132943,-0.0203 v 0 l -0.0454,-0.007 c -0.04053,-0.004 -0.08106,-0.006 -0.121594,-0.007 h -0.03567 v 0.9079 h 0.97275 A 3.9039734,3.9039734 0 0 0 30.35323,299.4025 c -0.03324,-0.0121 -0.06404,-0.0219 -0.09484,-0.0324 z"
         id="path36-9"
         style="fill:#0066ff;fill-opacity:1;stroke-width:0.0810626" />
      <path
         d="m 30.485362,299.46168 a 3.9890891,3.9890891 0 0 1 0.267507,0.71659 h 0.539877 a 1.9738736,1.9738736 0 0 0 -0.807384,-0.71659 z"
         id="path38-3"
         style="fill:#0066ff;fill-opacity:1;stroke-width:0.0810626" />
    </g>
    <g
       id="22-22-update-none">
      <rect
         style="opacity:0.003;fill:#000000;fill-opacity:1;stroke:none;stroke-width:0.10795;stroke-miterlimit:4;stroke-dasharray:none;stroke-opacity:1"
         id="rect1396"
         width="5.8208332"
         height="5.8208332"
         x="0"
         y="291.17914"
         ry="1.2988289e-06" />
      <path
         d="m 4.3357173,292.61835 0.9113638,0.46358 -0.2753727,0.13505 c 0.1135015,0.26819 0.1771964,0.56272 0.1771964,0.87257 0,1.24182 -1.0066667,2.24896 -2.2489567,2.24896 -0.3979734,0 -0.7715224,-0.1044 -1.0957438,-0.28591 l 0.2274818,-0.22748 c 0.2614843,0.13122 0.5555344,0.20689 0.868262,0.20689 1.0727562,0 1.941976,-0.8697 1.941976,-1.94198 0,-0.28782 -0.066568,-0.55888 -0.179112,-0.80456 z m -1.4665676,0.47724 z m 0,0 z m 0.031277,-0.94849 c -1.0727561,0 -1.94197598,0.8697 -1.94197598,1.94245 0,0.28783 0.0665684,0.55889 0.17911198,0.80457 l 0.3275737,0.66664 -0.91136378,-0.46358 0.27537268,-0.13505 c -0.11350144,-0.26819 -0.17719633,-0.56272 -0.17719633,-0.87258 -4.7891e-4,-1.24181 1.00666673,-2.24895 2.24847773,-2.24895 0.3979734,0 0.7715224,0.1044 1.0957438,0.28591 L 3.768689,292.35399 C 3.5072047,292.22277 3.2126757,292.1471 2.9004267,292.1471 Z"
         id="path4"
         sodipodi:nodetypes="cccssccsscccccccccccccccccccccccccccsscccccscc"
         style="fill:#d3dae3;fill-opacity:1;stroke-width:0.00478909" />
      <path
         d="m 2.929305,294.78435 v 0.60634 h 0.02536 0.02858 c 0.01627,0 0.03293,0 0.04914,-0.005 0.01626,-0.005 0.02969,-0.006 0.04429,-0.0101 l 0.02805,-0.006 c 0.01563,0 0.03085,-0.006 0.04651,-0.0101 0.01564,-0.004 0.03083,-0.0101 0.04651,-0.0111 l 0.03248,-0.0101 c 0.0124,-0.005 0.02486,-0.008 0.03672,-0.0101 0.01191,-0.006 0.0329,-0.0112 0.04915,-0.0171 0.01628,-0.008 0.03894,-0.0125 0.0584,-0.0207 a 2.6036471,2.6036471 0 0 0 0.202115,-0.51766 z"
         id="path8-7-9"
         style="fill:#6aa6a5;fill-opacity:1;stroke-width:0.0540396" />
      <path
         d="M 2.865549,294.72059 V 294.1131 H 2.144645 a 2.6539045,2.6539045 0 0 0 0.07731,0.60749 z"
         id="path10-5-2"
         style="fill:#6aa6a5;fill-opacity:1;stroke-width:0.0540396" />
      <path
         d="m 2.504559,295.33059 c 0.01674,0.008 0.03346,0.0112 0.05031,0.0155 l 0.02481,0.008 0.04325,0.0101 c 0.01626,0.005 0.03291,0.0101 0.04917,0.0104 l 0.03406,0.006 0.03568,0.006 c 0.01679,0 0.03291,0.007 0.04978,0.009 h 0.0394 0.03019 0.0039 v -0.30155 -0.30131 H 2.239667 c 0.05002,0.18299 0.119559,0.35995 0.207515,0.52797 0.01887,0.008 0.03835,0.0119 0.05789,0.0189 z"
         id="path12-35-0"
         style="fill:#6aa6a5;fill-opacity:1;stroke-width:0.0540396"
         sodipodi:nodetypes="ccccccccccccccccc" />
      <path
         d="m 2.865549,294.04931 v -0.6073 H 2.221923 a 2.678222,2.678222 0 0 0 -0.07731,0.6073 z"
         id="path14-62-2"
         style="fill:#6aa6a5;fill-opacity:1;stroke-width:0.0540396" />
      <path
         d="m 3.733967,294.1131 a 2.7246966,2.7246966 0 0 1 -0.07568,0.60748 h 0.383144 a 1.3050659,1.3050659 0 0 0 0.165903,-0.60748 z"
         id="path16-9-3"
         style="fill:#6aa6a5;fill-opacity:1;stroke-width:0.0540396" />
      <path
         d="M 2.080886,294.1131 H 1.5875 a 1.3050659,1.3050659 0 0 0 0.165904,0.60748 h 0.403679 a 2.7171311,2.7171311 0 0 1 -0.07615,-0.60748 z"
         id="path18-1-7"
         style="fill:#6aa6a5;fill-opacity:1;stroke-width:0.0540396" />
      <path
         d="m 2.080886,294.04931 a 2.7414493,2.7414493 0 0 1 0.07567,-0.6073 H 1.753422 a 1.3050659,1.3050659 0 0 0 -0.165901,0.6073 z"
         id="path20-27-5"
         style="fill:#6aa6a5;fill-opacity:1;stroke-width:0.0540396" />
      <path
         d="m 2.865549,293.37824 v -0.60526 h -0.04383 -0.0281 c -0.03084,0 -0.06159,0.0101 -0.09187,0.0112 l -0.02696,0.006 c -0.02807,0.007 -0.05402,0.0112 -0.08323,0.0185 l -0.03568,0.0101 c -0.02373,0.0101 -0.04651,0.014 -0.06967,0.0227 -0.01355,0.006 -0.02696,0.0101 -0.03999,0.0125 a 2.6360711,2.6360711 0 0 0 -0.207513,0.52681 z"
         id="path22-09-9"
         style="fill:#6aa6a5;fill-opacity:1;stroke-width:0.0540396" />
      <path
         d="m 2.357572,295.27492 c -0.07744,-0.15733 -0.139305,-0.32183 -0.184817,-0.49121 H 1.794469 c 0.136096,0.21499 0.331741,0.38556 0.563103,0.49121 z"
         id="path24-3-2"
         style="fill:#6aa6a5;fill-opacity:1;stroke-width:0.0540396"
         sodipodi:nodetypes="cccc" />
      <path
         d="m 2.929305,294.1131 v 0.60748 h 0.663618 a 2.6603894,2.6603894 0 0 0 0.07731,-0.60748 z"
         id="path26-6-2"
         style="fill:#6aa6a5;fill-opacity:1;stroke-width:0.0540396" />
      <path
         d="m 1.792314,293.37824 h 0.378272 a 2.7020001,2.7020001 0 0 1 0.186443,-0.49243 1.3104699,1.3104699 0 0 0 -0.564715,0.49243 z"
         id="path28-0-8"
         style="fill:#6aa6a5;fill-opacity:1;stroke-width:0.0540396" />
      <path
         d="m 3.657766,293.44201 a 2.7236161,2.7236161 0 0 1 0.07615,0.6073 h 0.473382 a 1.3045259,1.3045259 0 0 0 -0.165901,-0.6073 z"
         id="path30-6-9"
         style="fill:#6aa6a5;fill-opacity:1;stroke-width:0.0540396" />
      <path
         d="m 3.642093,294.78435 a 2.6598486,2.6598486 0 0 1 -0.178322,0.47922 1.315874,1.315874 0 0 0 0.54039,-0.47826 z"
         id="path32-2-7"
         style="fill:#6aa6a5;fill-opacity:1;stroke-width:0.0540396" />
      <path
         d="m 2.929305,293.44201 v 0.6073 H 3.6702 a 2.6593086,2.6593086 0 0 0 -0.07731,-0.6073 z"
         id="path34-61-3"
         style="fill:#6aa6a5;fill-opacity:1;stroke-width:0.0540396" />
      <path
         d="m 3.312456,292.83934 c -0.01517,-0.007 -0.0297,-0.0104 -0.04488,-0.0147 -0.02696,-0.0101 -0.05402,-0.0135 -0.0816,-0.0208 l -0.03291,-0.0101 c -0.02921,-0.009 -0.05886,-0.0101 -0.08864,-0.0131 v 0 l -0.0302,-0.007 c -0.02696,-0.004 -0.054,-0.006 -0.08102,-0.007 h -0.02375 v 0.60526 h 0.64848 a 2.6025665,2.6025665 0 0 0 -0.202103,-0.51716 c -0.02209,-0.0101 -0.04266,-0.0139 -0.06321,-0.0221 z"
         id="path36-8-6"
         style="fill:#6aa6a5;fill-opacity:1;stroke-width:0.0540396" />
      <path
         d="m 3.463771,292.90042 a 2.6593086,2.6593086 0 0 1 0.178322,0.47782 h 0.359915 a 1.315874,1.315874 0 0 0 -0.538237,-0.47782 z"
         id="path38-7-1"
         style="fill:#6aa6a5;fill-opacity:1;stroke-width:0.0540396" />
    </g>
    <g
       id="22-22-update-high">
      <rect
         style="opacity:0.003;fill:#000000;fill-opacity:1;stroke:none;stroke-width:0.10795;stroke-miterlimit:4;stroke-dasharray:none;stroke-opacity:1"
         id="rect1396-3"
         width="5.8208332"
         height="5.8208332"
         x="5.8208332"
         y="291.17914"
         ry="1.2988288e-06" />
      <path
         d="m 10.16978,292.61835 0.911363,0.46358 -0.275372,0.13505 c 0.113501,0.26819 0.177196,0.56272 0.177196,0.87257 0,1.24182 -1.0066663,2.24896 -2.2489563,2.24896 -0.3979734,0 -0.7715223,-0.1044 -1.0957437,-0.28591 l 0.2274818,-0.22748 c 0.2614842,0.13122 0.5555344,0.20689 0.8682619,0.20689 1.0727562,0 1.9419763,-0.8697 1.9419763,-1.94198 0,-0.28782 -0.06657,-0.55888 -0.179112,-0.80456 z m -1.4665677,0.47724 z m 0,0 z m 0.031277,-0.94849 c -1.072756,0 -1.9419759,0.8697 -1.9419759,1.94245 0,0.28783 0.066568,0.55889 0.179112,0.80457 l 0.3275737,0.66664 -0.9113638,-0.46358 0.2753727,-0.13505 c -0.1135015,-0.26819 -0.1771964,-0.56272 -0.1771964,-0.87258 -4.789e-4,-1.24181 1.0066668,-2.24895 2.2484777,-2.24895 0.3979734,0 0.7715225,0.1044 1.0957437,0.28591 l -0.2274813,0.22748 C 9.3412674,292.22277 9.0467383,292.1471 8.7344893,292.1471 Z"
         id="path4-3"
         sodipodi:nodetypes="cccssccsscccccccccccccccccccccccccccsscccccscc"
         style="fill:#d3dae3;fill-opacity:1;stroke-width:0.00478909" />
      <path
         d="m 8.7501377,294.78435 v 0.60634 h 0.02536 0.02858 c 0.01627,0 0.03293,0 0.04914,-0.005 0.01626,-0.005 0.02969,-0.006 0.04429,-0.0101 l 0.02805,-0.006 c 0.01563,0 0.03085,-0.006 0.04651,-0.0101 0.01564,-0.004 0.03083,-0.0101 0.04651,-0.0111 l 0.03248,-0.0101 c 0.0124,-0.005 0.02486,-0.008 0.03672,-0.0101 0.01191,-0.006 0.0329,-0.0112 0.04915,-0.0171 0.01628,-0.008 0.03894,-0.0125 0.0584,-0.0207 a 2.6036469,2.6036471 0 0 0 0.2021151,-0.51766 z"
         id="path8-7-2"
         style="fill:#e5005c;fill-opacity:1;stroke-width:0.0540396" />
      <path
         d="m 8.6863817,294.72059 v -0.60749 h -0.720904 a 2.6539043,2.6539045 0 0 0 0.07731,0.60749 z"
         id="path10-5-9"
         style="fill:#e5005c;fill-opacity:1;stroke-width:0.0540396" />
      <path
         d="m 8.3253918,295.33059 c 0.01674,0.008 0.03346,0.0112 0.05031,0.0155 l 0.02481,0.008 0.04325,0.0101 c 0.01626,0.005 0.03291,0.0101 0.04917,0.0104 l 0.03406,0.006 0.03568,0.006 c 0.01679,0 0.03291,0.007 0.04978,0.009 h 0.0394 0.03019 0.0039 v -0.30155 -0.30131 h -0.625442 c 0.05002,0.18299 0.119559,0.35995 0.207515,0.52797 0.01887,0.008 0.03835,0.0119 0.05789,0.0189 z"
         id="path12-35-3"
         style="fill:#e5005c;fill-opacity:1;stroke-width:0.0540396"
         sodipodi:nodetypes="ccccccccccccccccc" />
      <path
         d="m 8.6863817,294.04932 v -0.60731 H 8.0427558 a 2.6782216,2.678222 0 0 0 -0.07731,0.60731 z"
         id="path14-62-1"
         style="fill:#e5005c;fill-opacity:1;stroke-width:0.0540396" />
      <path
         d="m 9.5547996,294.1131 a 2.7246962,2.7246966 0 0 1 -0.07568,0.60749 h 0.3831439 a 1.3050658,1.3050659 0 0 0 0.1659025,-0.60749 z"
         id="path16-9-9"
         style="fill:#e5005c;fill-opacity:1;stroke-width:0.0540396" />
      <path
         d="M 7.9017191,294.1131 H 7.4083332 a 1.3050658,1.3050659 0 0 0 0.165904,0.60749 h 0.4036785 a 2.7171307,2.7171311 0 0 1 -0.07615,-0.60749 z"
         id="path18-1-4"
         style="fill:#e5005c;fill-opacity:1;stroke-width:0.0540396" />
      <path
         d="m 7.9017191,294.04932 a 2.7414491,2.7414493 0 0 1 0.07567,-0.60731 H 7.5742552 a 1.3050658,1.3050659 0 0 0 -0.165901,0.60731 z"
         id="path20-27-7"
         style="fill:#e5005c;fill-opacity:1;stroke-width:0.0540396" />
      <path
         d="m 8.6863817,293.37824 v -0.60526 h -0.04383 -0.0281 c -0.03084,0 -0.06159,0.0101 -0.09187,0.0112 l -0.02696,0.006 c -0.02807,0.007 -0.05402,0.0112 -0.08323,0.0185 l -0.03568,0.0101 c -0.02373,0.0101 -0.04651,0.014 -0.06967,0.0227 -0.01355,0.006 -0.02696,0.0101 -0.03999,0.0125 a 2.6360709,2.6360711 0 0 0 -0.207513,0.52682 z"
         id="path22-09-8"
         style="fill:#e5005c;fill-opacity:1;stroke-width:0.0540396" />
      <path
         d="m 8.1784048,295.27492 c -0.07744,-0.15733 -0.139305,-0.32183 -0.1848171,-0.49121 H 7.6153022 c 0.136096,0.21499 0.3317409,0.38556 0.5631026,0.49121 z"
         id="path24-3-4"
         style="fill:#e5005c;fill-opacity:1;stroke-width:0.0540396"
         sodipodi:nodetypes="cccc" />
      <path
         d="m 8.7501377,294.1131 v 0.60749 h 0.663618 a 2.6603893,2.6603894 0 0 0 0.07731,-0.60749 z"
         id="path26-6-5"
         style="fill:#e5005c;fill-opacity:1;stroke-width:0.0540396" />
      <path
         d="m 7.6131472,293.37824 h 0.3782715 a 2.7019997,2.7020001 0 0 1 0.1864431,-0.49243 1.3104698,1.3104699 0 0 0 -0.5647146,0.49243 z"
         id="path28-0-0"
         style="fill:#e5005c;fill-opacity:1;stroke-width:0.0540396" />
      <path
         d="m 9.4785987,293.44201 a 2.7236159,2.7236161 0 0 1 0.07615,0.60731 H 10.02813 a 1.3045258,1.3045259 0 0 0 -0.1659004,-0.60731 z"
         id="path30-6-3"
         style="fill:#e5005c;fill-opacity:1;stroke-width:0.0540396" />
      <path
         d="m 9.4629257,294.78435 a 2.6598484,2.6598486 0 0 1 -0.1783221,0.47922 1.3158739,1.315874 0 0 0 0.5403899,-0.47826 z"
         id="path32-2-6"
         style="fill:#e5005c;fill-opacity:1;stroke-width:0.0540396" />
      <path
         d="m 8.7501377,293.44201 v 0.60731 h 0.740895 a 2.6593084,2.6593086 0 0 0 -0.07731,-0.60731 z"
         id="path34-61-1"
         style="fill:#e5005c;fill-opacity:1;stroke-width:0.0540396" />
      <path
         d="m 9.1332886,292.83934 c -0.01517,-0.007 -0.0297,-0.0104 -0.04488,-0.0147 -0.02696,-0.0101 -0.05402,-0.0135 -0.0816,-0.0208 l -0.03291,-0.0101 c -0.02921,-0.009 -0.05886,-0.0101 -0.08864,-0.0131 v 0 l -0.0302,-0.007 c -0.02696,-0.004 -0.054,-0.006 -0.08102,-0.007 h -0.02375 v 0.60526 h 0.64848 a 2.6025663,2.6025665 0 0 0 -0.2021031,-0.51716 c -0.02209,-0.0101 -0.04266,-0.0139 -0.06321,-0.0221 z"
         id="path36-8-0"
         style="fill:#e5005c;fill-opacity:1;stroke-width:0.0540396" />
      <path
         d="m 9.2846036,292.90042 a 2.6593084,2.6593086 0 0 1 0.1783221,0.47782 h 0.3599148 a 1.3158739,1.315874 0 0 0 -0.5382369,-0.47782 z"
         id="path38-7-6"
         style="fill:#e5005c;fill-opacity:1;stroke-width:0.0540396" />
    </g>
    <g
       id="22-22-update-medium">
      <g
         id="g1175">
        <rect
           style="opacity:0.003;fill:#000000;fill-opacity:1;stroke:none;stroke-width:0.10795;stroke-miterlimit:4;stroke-dasharray:none;stroke-opacity:1"
           id="rect1396-3-1"
           width="5.8208332"
           height="5.8208332"
           x="11.641666"
           y="291.17914"
           ry="1.2988288e-06" />
        <path
           d="m 16.00384,292.61835 0.911363,0.46358 -0.275372,0.13505 c 0.113501,0.26819 0.177196,0.56272 0.177196,0.87257 0,1.24182 -1.006667,2.24896 -2.248957,2.24896 -0.397973,0 -0.771522,-0.1044 -1.095743,-0.28591 l 0.227481,-0.22748 c 0.261485,0.13122 0.555535,0.20689 0.868262,0.20689 1.072757,0 1.941976,-0.8697 1.941976,-1.94198 0,-0.28782 -0.06657,-0.55888 -0.179111,-0.80456 z m -1.435288,-0.47125 c -1.072756,0 -1.941976,0.8697 -1.941976,1.94245 0,0.28783 0.06657,0.55889 0.179112,0.80457 l 0.327574,0.66664 -0.911364,-0.46358 0.275373,-0.13505 c -0.113502,-0.26819 -0.177197,-0.56272 -0.177197,-0.87258 -4.79e-4,-1.24181 1.006667,-2.24895 2.248478,-2.24895 0.397973,0 0.771523,0.1044 1.095744,0.28591 l -0.227482,0.22748 c -0.261484,-0.13122 -0.556013,-0.20689 -0.868262,-0.20689 z"
           id="path4-7"
           sodipodi:nodetypes="cccssccssccccccccccccc"
           style="fill:#d3dae3;fill-opacity:1;stroke-width:0.00478909" />
        <path
           d="m 14.570971,294.78435 v 0.60634 h 0.02536 0.02858 c 0.01627,0 0.03293,0 0.04914,-0.005 0.01626,-0.005 0.02969,-0.006 0.04429,-0.0101 l 0.02805,-0.006 c 0.01563,0 0.03085,-0.006 0.04651,-0.0101 0.01564,-0.004 0.03083,-0.0101 0.04651,-0.0111 l 0.03248,-0.0101 c 0.0124,-0.005 0.02486,-0.008 0.03672,-0.0101 0.01191,-0.006 0.0329,-0.0112 0.04915,-0.0171 0.01628,-0.008 0.03894,-0.0125 0.0584,-0.0207 a 2.6036471,2.6036471 0 0 0 0.202115,-0.51766 z"
           id="path8-7-3"
           style="fill:#ff6600;fill-opacity:1;stroke-width:0.0540396" />
        <path
           d="m 14.507215,294.72059 v -0.60749 h -0.720904 a 2.6539045,2.6539045 0 0 0 0.07731,0.60749 z"
           id="path10-5-20"
           style="fill:#ff6600;fill-opacity:1;stroke-width:0.0540396" />
        <path
           d="m 14.146225,295.33059 c 0.01674,0.008 0.03346,0.0112 0.05031,0.0155 l 0.02481,0.008 0.04325,0.0101 c 0.01626,0.005 0.03291,0.0101 0.04917,0.0104 l 0.03406,0.006 0.03568,0.006 c 0.01679,0 0.03291,0.007 0.04978,0.009 h 0.0394 0.03019 0.0039 v -0.30155 -0.30131 h -0.625442 c 0.05002,0.18299 0.119559,0.35995 0.207515,0.52797 0.01887,0.008 0.03835,0.0119 0.05789,0.0189 z"
           id="path12-35-6"
           style="fill:#ff6600;fill-opacity:1;stroke-width:0.0540396"
           sodipodi:nodetypes="ccccccccccccccccc" />
        <path
           d="m 14.507215,294.04932 v -0.60731 h -0.643626 a 2.678222,2.678222 0 0 0 -0.07731,0.60731 z"
           id="path14-62-15"
           style="fill:#ff6600;fill-opacity:1;stroke-width:0.0540396" />
        <path
           d="m 15.375633,294.1131 a 2.7246966,2.7246966 0 0 1 -0.07568,0.60749 h 0.383144 A 1.3050659,1.3050659 0 0 0 15.849,294.1131 Z"
           id="path16-9-5"
           style="fill:#ff6600;fill-opacity:1;stroke-width:0.0540396" />
        <path
           d="m 13.722552,294.1131 h -0.493386 a 1.3050659,1.3050659 0 0 0 0.165904,0.60749 h 0.403679 a 2.7171311,2.7171311 0 0 1 -0.07615,-0.60749 z"
           id="path18-1-47"
           style="fill:#ff6600;fill-opacity:1;stroke-width:0.0540396" />
        <path
           d="m 13.722552,294.04932 a 2.7414493,2.7414493 0 0 1 0.07567,-0.60731 h -0.403134 a 1.3050659,1.3050659 0 0 0 -0.165901,0.60731 z"
           id="path20-27-6"
           style="fill:#ff6600;fill-opacity:1;stroke-width:0.0540396" />
        <path
           d="m 14.507215,293.37824 v -0.60526 h -0.04383 -0.0281 c -0.03084,0 -0.06159,0.0101 -0.09187,0.0112 l -0.02696,0.006 c -0.02807,0.007 -0.05402,0.0112 -0.08323,0.0185 l -0.03568,0.0101 c -0.02373,0.0101 -0.04651,0.014 -0.06967,0.0227 -0.01355,0.006 -0.02696,0.0101 -0.03999,0.0125 a 2.6360711,2.6360711 0 0 0 -0.207513,0.52682 z"
           id="path22-09-5"
           style="fill:#ff6600;fill-opacity:1;stroke-width:0.0540396" />
        <path
           d="m 13.999238,295.27492 c -0.07744,-0.15733 -0.139305,-0.32183 -0.184817,-0.49121 h -0.378286 c 0.136096,0.21499 0.331741,0.38556 0.563103,0.49121 z"
           id="path24-3-6"
           style="fill:#ff6600;fill-opacity:1;stroke-width:0.0540396"
           sodipodi:nodetypes="cccc" />
        <path
           d="m 14.570971,294.1131 v 0.60749 h 0.663618 a 2.6603894,2.6603894 0 0 0 0.07731,-0.60749 z"
           id="path26-6-9"
           style="fill:#ff6600;fill-opacity:1;stroke-width:0.0540396" />
        <path
           d="m 13.43398,293.37824 h 0.378272 a 2.7020001,2.7020001 0 0 1 0.186443,-0.49243 1.3104699,1.3104699 0 0 0 -0.564715,0.49243 z"
           id="path28-0-3"
           style="fill:#ff6600;fill-opacity:1;stroke-width:0.0540396" />
        <path
           d="m 15.299432,293.44201 a 2.7236161,2.7236161 0 0 1 0.07615,0.60731 h 0.473382 a 1.3045259,1.3045259 0 0 0 -0.165901,-0.60731 z"
           id="path30-6-7"
           style="fill:#ff6600;fill-opacity:1;stroke-width:0.0540396" />
        <path
           d="m 15.283759,294.78435 a 2.6598486,2.6598486 0 0 1 -0.178322,0.47922 1.315874,1.315874 0 0 0 0.54039,-0.47826 z"
           id="path32-2-4"
           style="fill:#ff6600;fill-opacity:1;stroke-width:0.0540396" />
        <path
           d="m 14.570971,293.44201 v 0.60731 h 0.740895 a 2.6593086,2.6593086 0 0 0 -0.07731,-0.60731 z"
           id="path34-61-5"
           style="fill:#ff6600;fill-opacity:1;stroke-width:0.0540396" />
        <path
           d="m 14.954122,292.83934 c -0.01517,-0.007 -0.0297,-0.0104 -0.04488,-0.0147 -0.02696,-0.0101 -0.05402,-0.0135 -0.0816,-0.0208 l -0.03291,-0.0101 c -0.02921,-0.009 -0.05886,-0.0101 -0.08864,-0.0131 v 0 l -0.0302,-0.007 c -0.02696,-0.004 -0.054,-0.006 -0.08102,-0.007 h -0.02375 v 0.60526 h 0.64848 a 2.6025665,2.6025665 0 0 0 -0.202103,-0.51716 c -0.02209,-0.0101 -0.04266,-0.0139 -0.06321,-0.0221 z"
           id="path36-8-2"
           style="fill:#ff6600;fill-opacity:1;stroke-width:0.0540396" />
        <path
           d="m 15.105437,292.90042 a 2.6593086,2.6593086 0 0 1 0.178322,0.47782 h 0.359915 a 1.315874,1.315874 0 0 0 -0.538237,-0.47782 z"
           id="path38-7-5"
           style="fill:#ff6600;fill-opacity:1;stroke-width:0.0540396" />
      </g>
    </g>
    <g
       id="22-22-update-low">
      <rect
         style="opacity:0.003;fill:#000000;fill-opacity:1;stroke:none;stroke-width:0.10795;stroke-miterlimit:4;stroke-dasharray:none;stroke-opacity:1"
         id="rect1396-3-2"
         width="5.8208332"
         height="5.8208332"
         x="17.4625"
         y="291.17914"
         ry="1.2988288e-06" />
      <path
         d="m 21.824673,292.61835 0.911363,0.46358 -0.275372,0.13505 c 0.113501,0.26819 0.177196,0.56272 0.177196,0.87257 0,0.7831 -0.400319,1.47288 -1.0076,1.87562 -0.355726,0.23592 -0.782466,0.37334 -1.241357,0.37334 -0.397973,0 -0.771522,-0.1044 -1.095743,-0.28591 l 0.227481,-0.22748 c 0.261485,0.13122 0.555535,0.20689 0.868262,0.20689 1.072757,0 1.941976,-0.8697 1.941976,-1.94198 0,-0.28782 -0.06657,-0.55888 -0.179111,-0.80456 z m -1.435288,-0.47125 c -1.072756,0 -1.941976,0.8697 -1.941976,1.94245 0,0.28783 0.06657,0.55889 0.179112,0.80457 l 0.327574,0.66664 -0.911364,-0.46358 0.275373,-0.13505 c -0.113502,-0.26819 -0.177197,-0.56272 -0.177197,-0.87258 -4.79e-4,-1.24181 1.006667,-2.24895 2.248478,-2.24895 0.397973,0 0.771523,0.1044 1.095744,0.28591 l -0.227482,0.22748 c -0.261484,-0.13122 -0.556013,-0.20689 -0.868262,-0.20689 z"
         id="path4-35"
         sodipodi:nodetypes="cccsssccssccccccccccccc"
         style="fill:#d3dae3;fill-opacity:1;stroke-width:0.00478909" />
      <path
         d="m 20.391805,294.78435 v 0.60634 h 0.02536 0.02858 c 0.01627,0 0.03293,0 0.04914,-0.005 0.01626,-0.005 0.02969,-0.006 0.04429,-0.0101 l 0.02805,-0.006 c 0.01563,0 0.03085,-0.006 0.04651,-0.0101 0.01564,-0.004 0.03083,-0.0101 0.04651,-0.0111 l 0.03248,-0.0101 c 0.0124,-0.005 0.02486,-0.008 0.03672,-0.0101 0.01191,-0.006 0.0329,-0.0112 0.04915,-0.0171 0.01628,-0.008 0.03894,-0.0125 0.0584,-0.0207 a 2.6036471,2.6036471 0 0 0 0.202115,-0.51766 z"
         id="path8-7-4"
         style="fill:#0066ff;fill-opacity:1;stroke-width:0.0540396" />
      <path
         d="m 20.328049,294.72059 v -0.60749 h -0.720904 a 2.6539045,2.6539045 0 0 0 0.07731,0.60749 z"
         id="path10-5-7"
         style="fill:#0066ff;fill-opacity:1;stroke-width:0.0540396" />
      <path
         d="m 19.967059,295.33059 c 0.01674,0.008 0.03346,0.0112 0.05031,0.0155 l 0.02481,0.008 0.04325,0.0101 c 0.01626,0.005 0.03291,0.0101 0.04917,0.0104 l 0.03406,0.006 0.03568,0.006 c 0.01679,0 0.03291,0.007 0.04978,0.009 h 0.0394 0.03019 0.0039 v -0.30155 -0.30131 h -0.625442 c 0.05002,0.18299 0.119559,0.35996 0.207515,0.52797 0.01887,0.008 0.03835,0.0119 0.05789,0.0189 z"
         id="path12-35-4"
         style="fill:#0066ff;fill-opacity:1;stroke-width:0.0540396"
         sodipodi:nodetypes="ccccccccccccccccc" />
      <path
         d="m 20.328049,294.04932 v -0.60731 h -0.643626 a 2.678222,2.678222 0 0 0 -0.07731,0.60731 z"
         id="path14-62-4"
         style="fill:#0066ff;fill-opacity:1;stroke-width:0.0540396" />
      <path
         d="m 21.196467,294.1131 a 2.7246966,2.7246966 0 0 1 -0.07568,0.60749 h 0.383144 a 1.3050659,1.3050659 0 0 0 0.165903,-0.60749 z"
         id="path16-9-30"
         style="fill:#0066ff;fill-opacity:1;stroke-width:0.0540396" />
      <path
         d="M 19.543386,294.1131 H 19.05 a 1.3050659,1.3050659 0 0 0 0.165904,0.60749 h 0.403679 a 2.7171311,2.7171311 0 0 1 -0.07615,-0.60749 z"
         id="path18-1-78"
         style="fill:#0066ff;fill-opacity:1;stroke-width:0.0540396" />
      <path
         d="m 19.543386,294.04932 a 2.7414493,2.7414493 0 0 1 0.07567,-0.60731 h -0.403134 a 1.3050659,1.3050659 0 0 0 -0.165901,0.60731 z"
         id="path20-27-68"
         style="fill:#0066ff;fill-opacity:1;stroke-width:0.0540396" />
      <path
         d="m 20.328049,293.37824 v -0.60526 h -0.04383 -0.0281 c -0.03084,0 -0.06159,0.0101 -0.09187,0.0112 l -0.02696,0.006 c -0.02807,0.007 -0.05402,0.0112 -0.08323,0.0185 l -0.03568,0.0101 c -0.02373,0.0101 -0.04651,0.014 -0.06967,0.0227 -0.01355,0.006 -0.02696,0.0101 -0.03999,0.0125 a 2.6360711,2.6360711 0 0 0 -0.207513,0.52682 z"
         id="path22-09-84"
         style="fill:#0066ff;fill-opacity:1;stroke-width:0.0540396" />
      <path
         d="m 19.820072,295.27492 c -0.07744,-0.15733 -0.139305,-0.32183 -0.184817,-0.49121 h -0.378286 c 0.136096,0.21499 0.331741,0.38556 0.563103,0.49121 z"
         id="path24-3-3"
         style="fill:#0066ff;fill-opacity:1;stroke-width:0.0540396"
         sodipodi:nodetypes="cccc" />
      <path
         d="m 20.391805,294.1131 v 0.60749 h 0.663618 a 2.6603894,2.6603894 0 0 0 0.07731,-0.60749 z"
         id="path26-6-1"
         style="fill:#0066ff;fill-opacity:1;stroke-width:0.0540396" />
      <path
         d="m 19.254814,293.37824 h 0.378272 a 2.7020001,2.7020001 0 0 1 0.186443,-0.49243 1.3104699,1.3104699 0 0 0 -0.564715,0.49243 z"
         id="path28-0-4"
         style="fill:#0066ff;fill-opacity:1;stroke-width:0.0540396" />
      <path
         d="m 21.120266,293.44201 a 2.7236161,2.7236161 0 0 1 0.07615,0.60731 h 0.473382 a 1.3045259,1.3045259 0 0 0 -0.165901,-0.60731 z"
         id="path30-6-92"
         style="fill:#0066ff;fill-opacity:1;stroke-width:0.0540396" />
      <path
         d="m 21.104593,294.78435 a 2.6598486,2.6598486 0 0 1 -0.178322,0.47922 1.315874,1.315874 0 0 0 0.54039,-0.47826 z"
         id="path32-2-0"
         style="fill:#0066ff;fill-opacity:1;stroke-width:0.0540396" />
      <path
         d="m 20.391805,293.44201 v 0.60731 H 21.1327 a 2.6593086,2.6593086 0 0 0 -0.07731,-0.60731 z"
         id="path34-61-6"
         style="fill:#0066ff;fill-opacity:1;stroke-width:0.0540396" />
      <path
         d="m 20.774956,292.83934 c -0.01517,-0.007 -0.0297,-0.0104 -0.04488,-0.0147 -0.02696,-0.0101 -0.05402,-0.0135 -0.0816,-0.0208 l -0.03291,-0.0101 c -0.02921,-0.009 -0.05886,-0.0101 -0.08864,-0.0131 v 0 l -0.0302,-0.007 c -0.02696,-0.004 -0.054,-0.006 -0.08102,-0.007 h -0.02375 v 0.60526 h 0.64848 a 2.6025665,2.6025665 0 0 0 -0.202103,-0.51716 c -0.02209,-0.0101 -0.04266,-0.0139 -0.06321,-0.0221 z"
         id="path36-8-8"
         style="fill:#0066ff;fill-opacity:1;stroke-width:0.0540396" />
      <path
         d="m 20.926271,292.90042 a 2.6593086,2.6593086 0 0 1 0.178322,0.47782 h 0.359915 a 1.315874,1.315874 0 0 0 -0.538237,-0.47782 z"
         id="path38-7-9"
         style="fill:#0066ff;fill-opacity:1;stroke-width:0.0540396" />
    </g>
  </g>
</svg>
