<?xml version="1.0" encoding="UTF-8" standalone="no"?>
<svg
   xmlns:dc="http://purl.org/dc/elements/1.1/"
   xmlns:cc="http://creativecommons.org/ns#"
   xmlns:rdf="http://www.w3.org/1999/02/22-rdf-syntax-ns#"
   xmlns:svg="http://www.w3.org/2000/svg"
   xmlns="http://www.w3.org/2000/svg"
   xmlns:sodipodi="http://sodipodi.sourceforge.net/DTD/sodipodi-0.dtd"
   xmlns:inkscape="http://www.inkscape.org/namespaces/inkscape"
   inkscape:version="1.0 (4035a4fb49, 2020-05-01)"
   sodipodi:docname="user.svg"
   id="svg12"
   version="1.1"
   viewBox="0 0 16 16">
  <metadata
     id="metadata18">
    <rdf:RDF>
      <cc:Work
         rdf:about="">
        <dc:format>image/svg+xml</dc:format>
        <dc:type
           rdf:resource="http://purl.org/dc/dcmitype/StillImage" />
      </cc:Work>
    </rdf:RDF>
  </metadata>
  <defs
     id="defs16" />
  <sodipodi:namedview
     inkscape:document-rotation="0"
     inkscape:current-layer="svg12"
     inkscape:window-maximized="1"
     inkscape:window-y="0"
     inkscape:window-x="0"
     inkscape:cy="8"
     inkscape:cx="8"
     inkscape:zoom="14.75"
     showgrid="false"
     id="namedview14"
     inkscape:window-height="1015"
     inkscape:window-width="1920"
     inkscape:pageshadow="2"
     inkscape:pageopacity="0"
     guidetolerance="10"
     gridtolerance="10"
     objecttolerance="10"
     borderopacity="1"
     bordercolor="#666666"
     pagecolor="#ffffff" />
  <g
     id="g10"
     transform="translate(-421.71,-531.79)">
    <g
       id="g6"
       fill="#43be80">
      <path
         style="fill:#d08770;fill-opacity:1"
         id="path2"
         transform="translate(421.71,531.79)"
         d="M 8,9 A 5,4.5 0 0 0 3,13.5 5,4.5 0 0 0 3.033203,14 H 12.963 A 5,4.5 0 0 0 13,13.5 5,4.5 0 0 0 8,9 m 0,1 a 4,3.5 0 0 1 3.955078,3 H 4.045 A 4,3.5 0 0 1 8,10" />
      <path
         style="fill:#bf616a;fill-opacity:1"
         id="path4"
         d="m 429.71,533.79 c -1.657,0 -3,1.343 -3,3 0,1.657 1.343,3 3,3 1.657,0 3,-1.343 3,-3 0,-1.657 -1.343,-3 -3,-3 m 1.592,1.232 0.707,0.707 -2.83,2.828 -1.768,-1.768 0.707,-0.707 1.061,1.061 z" />
    </g>
    <path
       id="path8"
       d="m 431.31,535.02 0.707,0.707 -2.83,2.828 -1.768,-1.768 0.707,-0.707 1.061,1.061 z"
       fill="#ffffff" />
  </g>
</svg>
