<?xml version="1.0" encoding="UTF-8" standalone="no"?>
<svg
   xmlns:dc="http://purl.org/dc/elements/1.1/"
   xmlns:cc="http://creativecommons.org/ns#"
   xmlns:rdf="http://www.w3.org/1999/02/22-rdf-syntax-ns#"
   xmlns:svg="http://www.w3.org/2000/svg"
   xmlns="http://www.w3.org/2000/svg"
   xmlns:xlink="http://www.w3.org/1999/xlink"
   xmlns:sodipodi="http://sodipodi.sourceforge.net/DTD/sodipodi-0.dtd"
   xmlns:inkscape="http://www.inkscape.org/namespaces/inkscape"
   inkscape:version="1.0.1 (3bc2e813f5, 2020-09-07)"
   sodipodi:docname="folder-reddit.svg"
   id="svg12"
   version="1.1"
   viewBox="0 0 64 64">
  <metadata
     id="metadata16">
    <rdf:RDF>
      <cc:Work
         rdf:about="">
        <dc:format>image/svg+xml</dc:format>
        <dc:type
           rdf:resource="http://purl.org/dc/dcmitype/StillImage" />
      </cc:Work>
    </rdf:RDF>
  </metadata>
  <sodipodi:namedview
     inkscape:document-rotation="0"
     inkscape:lockguides="true"
     inkscape:current-layer="svg12"
     inkscape:window-maximized="1"
     inkscape:window-y="0"
     inkscape:window-x="0"
     inkscape:cy="43.56927"
     inkscape:cx="94.302919"
     inkscape:zoom="2.6074563"
     showgrid="false"
     id="namedview14"
     inkscape:window-height="1009"
     inkscape:window-width="1920"
     inkscape:pageshadow="2"
     inkscape:pageopacity="0"
     guidetolerance="10"
     gridtolerance="10"
     objecttolerance="10"
     borderopacity="1"
     bordercolor="#666666"
     pagecolor="#ffffff" />
  <defs
     id="defs3051">
    <linearGradient
       id="linearGradient824"
       inkscape:collect="always">
      <stop
         id="stop820"
         offset="0"
         style="stop-color:#bf616a;stop-opacity:1" />
      <stop
         id="stop822"
         offset="1"
         style="stop-color:#d08770;stop-opacity:1" />
    </linearGradient>
    <linearGradient
       id="linearGradient831"
       inkscape:collect="always">
      <stop
         id="stop827"
         offset="0"
         style="stop-color:#88c0d0;stop-opacity:1" />
      <stop
         id="stop829"
         offset="1"
         style="stop-color:#b48ead;stop-opacity:1" />
    </linearGradient>
    <style
       id="current-color-scheme"
       type="text/css">
      .ColorScheme-Text {
        color:#31363b;
      }
      .ColorScheme-Background {
        color:#eff0f1;
      }
      .ColorScheme-Highlight {
        color:#3daee9;
      }
      .ColorScheme-ViewText {
        color:#31363b;
      }
      .ColorScheme-ViewBackground {
        color:#fcfcfc;
      }
      .ColorScheme-ViewHover {
        color:#93cee9;
      }
      .ColorScheme-ViewFocus{
        color:#3daee9;
      }
      .ColorScheme-ButtonText {
        color:#31363b;
      }
      .ColorScheme-ButtonBackground {
        color:#eff0f1;
      }
      .ColorScheme-ButtonHover {
        color:#93cee9;
      }
      .ColorScheme-ButtonFocus{
        color:#3daee9;
      }
      </style>
    <linearGradient
       gradientUnits="userSpaceOnUse"
       y2="16"
       x2="60"
       y1="6"
       x1="4"
       id="linearGradient833"
       xlink:href="#linearGradient831"
       inkscape:collect="always" />
    <linearGradient
       gradientUnits="userSpaceOnUse"
       y2="32"
       x2="61"
       y1="32"
       x1="3"
       id="linearGradient826"
       xlink:href="#linearGradient824"
       inkscape:collect="always" />
  </defs>
  <path
     id="path4"
     class="ColorScheme-Highlight"
     d="M 4 6 L 4 11 L 4 20 L 3 20 L 3 21 L 3.0019531 21 C 3.0019031 21.004 3 21.008019 3 21.011719 L 3 57 L 3 58 L 4 58 L 60 58 L 61 58 L 61 57 L 61 21.011719 L 61 21 L 61 16 L 60 16 L 60 11.009766 C 60 11.006766 59.998047 11.004 59.998047 11 L 60 11 L 60 10 L 32 10 L 28 6 L 4 6 z "
     style="fill:url(#linearGradient826);fill-opacity:1;stroke:none" />
  <path
     id="path6"
     d="M 4 6 L 4 11 L 4 20 L 22 20 L 26 16 L 60 16 L 60 11.009766 C 60 11.006766 59.998047 11.004 59.998047 11 L 60 11 L 60 10 L 32 10 L 28 6 L 4 6 z "
     style="fill-opacity:1;fill-rule:evenodd;fill:url(#linearGradient833)" />
  <path
     id="path8"
     d="M 28 6 L 31 11 L 33 11 L 60 11 L 60 10 L 33 10 L 32 10 L 28 6 z M 26 16 L 22 20 L 3 20 L 3 21 L 23 21 L 26 16 z "
     style="fill:#ffffff;fill-opacity:0.2;fill-rule:evenodd" />
  <path
     id="path10"
     class="ColorScheme-Text"
     d="M 26 16 L 20 19 L 4 19 L 4 20 L 22 20 L 26 16 z M 3 57 L 3 58 L 4 58 L 60 58 L 61 58 L 61 57 L 60 57 L 4 57 L 3 57 z "
     style="fill-opacity:0.2;fill-rule:evenodd" />
  <path
     d="m 43.57276,36.558119 c 0,-1.827961 -1.48705,-3.310438 -3.31023,-3.310438 -0.71829,0 -1.40424,0.230204 -1.97054,0.649251 -1.60685,-0.810388 -3.51765,-1.298314 -5.53867,-1.413413 l 1.32124,-3.651066 3.19537,0.796542 c 0.0684,1.312161 1.16017,2.35257 2.48618,2.35257 1.37188,0 2.49065,-1.118822 2.49065,-2.490695 C 42.24676,28.118824 41.12799,27 39.75611,27 c -0.9346,0 -1.74957,0.515619 -2.17779,1.279967 l -4.37848,-1.095805 -1.90601,5.271658 c -2.1961,0.06438 -4.27736,0.561658 -6.01306,1.431938 -0.56633,-0.419041 -1.24748,-0.64457 -1.96592,-0.64457 C 21.48721,33.247688 20,34.734833 20,36.558119 c 0,0.893115 0.36828,1.754041 0.99912,2.371093 -0.0412,0.262396 -0.064,0.529465 -0.064,0.796361 0,2.002771 1.16937,3.862917 3.28726,5.23497 2.02581,1.316654 4.71,2.039457 7.5554,2.039457 2.84524,0 5.52481,-0.722803 7.55508,-2.039457 2.11788,-1.376726 3.28745,-3.236699 3.28745,-5.23497 0,-0.262397 -0.0227,-0.524793 -0.0599,-0.787189 0.63991,-0.612377 1.01291,-1.477978 1.01291,-2.380265 z m -16.97062,1.933706 c 0,-1.063611 0.86564,-1.929213 1.92927,-1.929213 1.06333,0 1.92895,0.865602 1.92895,1.929213 0,1.06343 -0.86562,1.929031 -1.92895,1.929031 -1.06363,0 -1.92927,-0.865601 -1.92927,-1.929031 z m 5.3085,6.10489 c -1.49632,0 -2.95581,-0.423542 -4.21713,-1.224576 l 0.74106,-1.164869 c 1.04069,0.662916 2.2469,1.012898 3.48083,1.012898 1.23394,0 2.43538,-0.349982 3.48053,-1.012898 l 0.74138,1.164869 c -1.27089,0.801034 -2.73022,1.224576 -4.22667,1.224576 z m 3.42095,-4.175859 c -1.06366,0 -1.92914,-0.865601 -1.92914,-1.929031 0,-1.063611 0.86548,-1.929213 1.92914,-1.929213 1.06362,0 1.92894,0.865602 1.92894,1.929213 0,1.06343 -0.86532,1.929031 -1.92894,1.929031 z m 0,0"
     id="path2-3"
     style="fill:#00121a;fill-opacity:1;stroke-width:0.0460407" />
</svg>
