<?xml version="1.0" encoding="UTF-8" standalone="no"?>
<svg
   xmlns:dc="http://purl.org/dc/elements/1.1/"
   xmlns:cc="http://creativecommons.org/ns#"
   xmlns:rdf="http://www.w3.org/1999/02/22-rdf-syntax-ns#"
   xmlns:svg="http://www.w3.org/2000/svg"
   xmlns="http://www.w3.org/2000/svg"
   xmlns:xlink="http://www.w3.org/1999/xlink"
   xmlns:sodipodi="http://sodipodi.sourceforge.net/DTD/sodipodi-0.dtd"
   xmlns:inkscape="http://www.inkscape.org/namespaces/inkscape"
   inkscape:version="1.0 (4035a4fb49, 2020-05-01)"
   sodipodi:docname="folder-unlocked.svg"
   width="64"
   version="1.1"
   height="64"
   id="svg2">
  <sodipodi:namedview
     inkscape:document-rotation="0"
     inkscape:current-layer="svg2"
     inkscape:window-maximized="1"
     inkscape:window-y="0"
     inkscape:window-x="0"
     inkscape:cy="15.10311"
     inkscape:cx="44.155843"
     inkscape:zoom="2.6074563"
     showgrid="false"
     id="namedview18"
     inkscape:window-height="1013"
     inkscape:window-width="1920"
     inkscape:pageshadow="2"
     inkscape:pageopacity="0"
     guidetolerance="10"
     gridtolerance="10"
     objecttolerance="10"
     borderopacity="1"
     bordercolor="#666666"
     pagecolor="#ffffff" />
  <defs
     id="defs5455">
    <linearGradient
       id="linearGradient835"
       inkscape:collect="always">
      <stop
         id="stop831"
         offset="0"
         style="stop-color:#bf616a;stop-opacity:1" />
      <stop
         id="stop833"
         offset="1"
         style="stop-color:#d08770;stop-opacity:1" />
    </linearGradient>
    <linearGradient
       id="linearGradient828"
       inkscape:collect="always">
      <stop
         id="stop824"
         offset="0"
         style="stop-color:#8fbcbb;stop-opacity:1" />
      <stop
         id="stop826"
         offset="1"
         style="stop-color:#a3be8c;stop-opacity:1" />
    </linearGradient>
    <linearGradient
       id="linearGradient4178"
       xlink:href="#linearGradient4172-5"
       y1="541.79797"
       y2="499.78421"
       gradientUnits="userSpaceOnUse"
       x2="0"
       gradientTransform="matrix(1 0 0 0.99967455 0 0.17645)" />
    <linearGradient
       id="linearGradient4172-5">
      <stop
         style="stop-color:#3daee9"
         id="stop4174-6" />
      <stop
         offset="1"
         style="stop-color:#6cc1ef"
         id="stop4176-6" />
    </linearGradient>
    <linearGradient
       gradientUnits="userSpaceOnUse"
       y2="503.798"
       x2="444.57143"
       y1="503.798"
       x1="388.57143"
       id="linearGradient830"
       xlink:href="#linearGradient828"
       inkscape:collect="always" />
    <linearGradient
       gradientUnits="userSpaceOnUse"
       y2="520.79811"
       x2="445.57143"
       y1="520.79811"
       x1="387.57143"
       id="linearGradient837"
       xlink:href="#linearGradient835"
       inkscape:collect="always" />
  </defs>
  <metadata
     id="metadata5458">
    <rdf:RDF>
      <cc:Work
         rdf:about="">
        <dc:format>image/svg+xml</dc:format>
        <dc:type
           rdf:resource="http://purl.org/dc/dcmitype/StillImage" />
        <dc:title />
      </cc:Work>
    </rdf:RDF>
  </metadata>
  <g
     id="layer1"
     transform="translate(-384.57143,-483.798)">
    <g
       id="layer1-1">
      <path
         style="fill:url(#linearGradient830);fill-opacity:1"
         id="rect4180"
         d="m 388.57143,489.79812 v 5 22 c 0,0.55373 0.446,1 1,1 h 54 c 0.55399,0 1,-0.44627 1,-1 v -21.99023 c 0,-0.003 -0.002,-0.006 -0.002,-0.01 h 0.002 v -1 h -28 l -4,-4 h -24 z" />
      <path
         style="fill:url(#linearGradient837);fill-opacity:1"
         id="rect4113"
         d="m 410.57143,499.79812 -4,4 h -19 v 1 h 0.002 c -5e-5,0.004 -0.002,0.008 -0.002,0.0117 v 35.98828 1 h 1 56 1 v -1 -35.98828 -0.0117 -5 z" />
      <path
         style="fill:#ffffff;fill-opacity:0.235294;fill-rule:evenodd"
         id="path4224"
         d="m 387.57144,503.79812 v 1 h 19.99999 l 3,-5 -4,4 z" />
      <path
         style="fill-opacity:0.235294;fill-rule:evenodd"
         id="path4228"
         d="m 388.57143,502.79812 v 1 h 18 l 4,-4 -6,3 z" />
      <path
         style="fill-opacity:0.235294"
         id="path4151-2"
         d="m 387.57143,540.7981 v 1 h 1 56 1 v -1 h -1 -56 z" />
      <path
         style="fill:#ffffff;fill-opacity:0.235294;fill-rule:evenodd"
         id="path4196"
         d="m 28,6 3,5 h 2 27 V 10 H 33 32 Z"
         transform="translate(384.57143,483.798)" />
    </g>
    <path
       style="fill:#090812;fill-opacity:1"
       d="m 32,27 c -2.77,0 -5,2.23 -5,5 v 1 h 1 v -1 c 0,-2.42375 1.92251,-4 4,-4 2.0775,0 4,1.57625 4,4 v 5 h -8 -1 -3 v 1 9 H 25.75 38.25 40 V 37 H 38.25 37 v -5 c 0,-2.77 -2.23,-5 -5,-5 z m -7,11 h 14 v 8 H 25 Z"
       transform="translate(384.57143,483.798)"
       id="rect4136" />
  </g>
</svg>
