<?xml version="1.0" encoding="UTF-8" standalone="no"?>
<svg
   xmlns:dc="http://purl.org/dc/elements/1.1/"
   xmlns:cc="http://creativecommons.org/ns#"
   xmlns:rdf="http://www.w3.org/1999/02/22-rdf-syntax-ns#"
   xmlns:svg="http://www.w3.org/2000/svg"
   xmlns="http://www.w3.org/2000/svg"
   xmlns:xlink="http://www.w3.org/1999/xlink"
   xmlns:sodipodi="http://sodipodi.sourceforge.net/DTD/sodipodi-0.dtd"
   xmlns:inkscape="http://www.inkscape.org/namespaces/inkscape"
   width="32"
   height="32"
   version="1.1"
   id="svg11"
   sodipodi:docname="bookmarks.svg"
   inkscape:version="1.0 (4035a4fb49, 2020-05-01)">
  <metadata
     id="metadata17">
    <rdf:RDF>
      <cc:Work
         rdf:about="">
        <dc:format>image/svg+xml</dc:format>
        <dc:type
           rdf:resource="http://purl.org/dc/dcmitype/StillImage" />
      </cc:Work>
    </rdf:RDF>
  </metadata>
  <defs
     id="defs15">
    <linearGradient
       inkscape:collect="always"
       id="linearGradient857">
      <stop
         style="stop-color:#a3be8c;stop-opacity:1"
         offset="0"
         id="stop853" />
      <stop
         style="stop-color:#ebcb8b;stop-opacity:1"
         offset="1"
         id="stop855" />
    </linearGradient>
    <linearGradient
       id="linearGradient856"
       inkscape:collect="always">
      <stop
         id="stop852"
         offset="0"
         style="stop-color:#a3be8c;stop-opacity:1" />
      <stop
         id="stop854"
         offset="1"
         style="stop-color:#88c0d0;stop-opacity:1" />
    </linearGradient>
    <linearGradient
       id="linearGradient851"
       x1="0"
       y1="0.5"
       x2="1"
       y2="0.5"
       gradientTransform="matrix(19.206691,0,0,28.000107,6.2711923,2.3832385)"
       gradientUnits="userSpaceOnUse">
      <stop
         offset="0%"
         stop-opacity="1"
         style="stop-color:#ff0000;stop-opacity:1"
         id="stop846" />
      <stop
         offset="98.69565217391305%"
         stop-opacity="1"
         style="stop-color:#ff9955;stop-opacity:1"
         id="stop848" />
    </linearGradient>
    <linearGradient
       id="_lgradient_1"
       x1="0"
       y1="0.5"
       x2="1"
       y2="0.5"
       gradientTransform="matrix(19.206691,0,0,28.000107,6.0550056,2.2700061)"
       gradientUnits="userSpaceOnUse">
      <stop
         offset="0%"
         stop-opacity="1"
         style="stop-color:rgb(242,55,239)"
         id="stop9" />
      <stop
         offset="98.69565217391305%"
         stop-opacity="1"
         style="stop-color:rgb(252,82,82)"
         id="stop11" />
    </linearGradient>
    <linearGradient
       id="_lgradient_1-3"
       x1="0"
       y1="0.5"
       x2="1"
       y2="0.5"
       gradientTransform="matrix(19.206691,0,0,28.000107,6.2711919,2.3832384)"
       gradientUnits="userSpaceOnUse">
      <stop
         offset="0%"
         stop-opacity="1"
         style="stop-color:rgb(242,55,239)"
         id="stop9-6" />
      <stop
         offset="98.69565217391305%"
         stop-opacity="1"
         style="stop-color:rgb(252,82,82)"
         id="stop11-7" />
    </linearGradient>
    <linearGradient
       gradientUnits="userSpaceOnUse"
       gradientTransform="matrix(19.206691,0,0,28.000107,6.2711923,2.3832385)"
       y2="0.5"
       x2="1"
       y1="0.5"
       x1="0"
       id="_lgradient_1-36">
      <stop
         id="stop9-7"
         style="stop-color:#ff005d;stop-opacity:1"
         stop-opacity="1"
         offset="0%" />
      <stop
         id="stop11-5"
         style="stop-color:#ff8b26;stop-opacity:0.98823529"
         stop-opacity="1"
         offset="98.69565217391305%" />
    </linearGradient>
    <linearGradient
       inkscape:collect="always"
       xlink:href="#linearGradient857"
       id="linearGradient854"
       x1="169.26875"
       y1="134.64774"
       x2="119.86368"
       y2="132.72638"
       gradientUnits="userSpaceOnUse" />
    <linearGradient
       y2="243.37729"
       x2="257.73706"
       y1="45.150177"
       x1="36.161591"
       gradientUnits="userSpaceOnUse"
       id="linearGradient855"
       xlink:href="#linearGradient856"
       inkscape:collect="always" />
  </defs>
  <sodipodi:namedview
     pagecolor="#ffffff"
     bordercolor="#666666"
     inkscape:document-rotation="0"
     borderopacity="1"
     objecttolerance="10"
     gridtolerance="10"
     guidetolerance="10"
     inkscape:pageopacity="0"
     inkscape:pageshadow="2"
     inkscape:window-width="1920"
     inkscape:window-height="1015"
     id="namedview13"
     showgrid="false"
     inkscape:zoom="10.408989"
     inkscape:cx="-4.6115107"
     inkscape:cy="7.282968"
     inkscape:window-x="0"
     inkscape:window-y="0"
     inkscape:window-maximized="1"
     inkscape:current-layer="bookmarks-5" />
  <g
     id="bookmarks">
    <g
       transform="translate(0.02534369,0.2700052)"
       style="clip-rule:evenodd;fill-rule:evenodd;stroke-linejoin:round;stroke-miterlimit:1.41421"
       id="bookmarks-5">
      <rect
         y="0"
         x="0"
         height="32"
         width="32"
         id="rect820"
         style="fill:#2020ff;fill-opacity:0" />
      <g
         id="g6"
         transform="matrix(0.08818282,0,0,0.08818282,2.92536,3.0593328)">
        <path
           d="m 199.628,175.487 c -0.632,-1.977 0.067,-4.131 1.741,-5.358 l 37.422,-27.455 c 5.958,-4.371 8.333,-11.736 6.049,-18.763 -2.283,-7.028 -8.533,-11.591 -15.922,-11.625 l -46.413,-0.215 c -2.076,-0.01 -3.908,-1.34 -4.558,-3.311 L 163.4,64.684 c -2.316,-7.017 -8.586,-11.55 -15.975,-11.551 v 0 c -7.389,0 -13.66,4.534 -15.976,11.55 l -6.557,19.859 c -1.039,3.146 0.669,6.54 3.816,7.578 3.147,1.041 6.539,-0.669 7.579,-3.816 l 6.557,-19.859 c 1.014,-3.073 3.762,-3.312 4.581,-3.312 0.818,0 3.566,0.239 4.58,3.312 l 14.547,44.077 c 2.27,6.875 8.658,11.516 15.897,11.55 l 46.413,0.215 c 3.236,0.015 4.313,2.555 4.565,3.333 0.253,0.778 0.875,3.465 -1.734,5.379 l -37.423,27.455 c -5.837,4.283 -8.277,11.793 -6.072,18.689 l 14.143,44.222 c 0.986,3.083 -1.097,4.892 -1.759,5.372 -0.662,0.481 -3.025,1.904 -5.652,0.013 l -37.677,-27.114 c -5.878,-4.229 -13.776,-4.229 -19.654,0 l -37.684,27.119 c -2.627,1.89 -4.991,0.468 -5.652,-0.012 -0.662,-0.481 -2.745,-2.289 -1.76,-5.371 l 14.139,-44.229 c 2.205,-6.895 -0.236,-14.405 -6.072,-18.688 L 63.149,133 c -2.609,-1.914 -1.987,-4.602 -1.734,-5.379 0.253,-0.778 1.33,-3.318 4.565,-3.333 l 46.416,-0.215 c 3.313,-0.016 5.987,-2.714 5.972,-6.028 -0.016,-3.304 -2.699,-5.972 -6,-5.972 -0.009,0 -0.019,0 -0.028,0 l -46.416,0.215 c -7.389,0.034 -13.639,4.597 -15.922,11.625 -2.283,7.028 0.091,14.393 6.048,18.764 l 37.421,27.455 c 1.673,1.228 2.373,3.381 1.741,5.358 l -14.138,44.229 c -2.25,7.038 0.159,14.392 6.137,18.734 3,2.179 6.442,3.269 9.886,3.269 3.419,0 6.84,-1.075 9.829,-3.225 l 37.683,-27.119 c 1.685,-1.213 3.95,-1.213 5.635,0 l 37.677,27.114 c 5.998,4.316 13.736,4.3 19.715,-0.044 5.979,-4.343 8.387,-11.697 6.136,-18.736 z"
           id="path2"
           style="fill:url(#linearGradient854);fill-opacity:1" />
        <path
           d="M 147.421,0 C 66.133,0 0,66.133 0,147.421 c 0,81.288 66.133,147.421 147.421,147.421 3.313,0 6,-2.687 6,-6 0,-3.313 -2.687,-6 -6,-6 C 72.75,282.843 12,222.093 12,147.421 12,72.749 72.75,12 147.421,12 c 74.671,0 135.421,60.75 135.421,135.421 0,46.48 -23.42,89.182 -62.65,114.228 -2.793,1.783 -3.612,5.493 -1.829,8.286 1.783,2.793 5.492,3.612 8.286,1.829 42.7,-27.262 68.193,-73.745 68.193,-124.342 C 294.843,66.133 228.71,0 147.421,0 Z"
           id="path4"
           style="fill:url(#linearGradient855);fill-opacity:1" />
      </g>
    </g>
  </g>
</svg>
