<?xml version="1.0" encoding="UTF-8" standalone="no"?>
<!-- Svg Vector Icons : http://www.onlinewebfonts.com/icon -->

<svg
   xmlns:dc="http://purl.org/dc/elements/1.1/"
   xmlns:cc="http://creativecommons.org/ns#"
   xmlns:rdf="http://www.w3.org/1999/02/22-rdf-syntax-ns#"
   xmlns:svg="http://www.w3.org/2000/svg"
   xmlns="http://www.w3.org/2000/svg"
   xmlns:sodipodi="http://sodipodi.sourceforge.net/DTD/sodipodi-0.dtd"
   xmlns:inkscape="http://www.inkscape.org/namespaces/inkscape"
   version="1.1"
   x="0px"
   y="0px"
   viewBox="0 0 41.823433 31.523943"
   enable-background="new 0 0 1000 1000"
   xml:space="preserve"
   id="svg8"
   sodipodi:docname="kteatime.svg"
   width="41.823433"
   height="31.523943"
   inkscape:version="0.92.4 (5da689c313, 2019-01-14)"><metadata
   id="metadata7"><rdf:RDF><cc:Work
       rdf:about=""><dc:format>image/svg+xml</dc:format><dc:type
         rdf:resource="http://purl.org/dc/dcmitype/StillImage" /></cc:Work></rdf:RDF></metadata><defs
   id="defs12" /><sodipodi:namedview
   pagecolor="#ffffff"
   bordercolor="#666666"
   borderopacity="1"
   objecttolerance="10"
   gridtolerance="10"
   guidetolerance="10"
   inkscape:pageopacity="0"
   inkscape:pageshadow="2"
   inkscape:window-width="1920"
   inkscape:window-height="1013"
   id="namedview10"
   showgrid="false"
   inkscape:zoom="5.3400704"
   inkscape:cx="23.015717"
   inkscape:cy="15.973696"
   inkscape:window-x="0"
   inkscape:window-y="0"
   inkscape:window-maximized="1"
   inkscape:current-layer="svg8" />
<g
   id="kteatime"
   transform="matrix(0.02786378,0,0,0.02786378,7.0013622,2.4741478)"><path
     d="m 10,778.4 v 22.3 C 10,813 19.9,823 32.2,823 h 891.1 c 12.3,0 22.2,-9.9 22.2,-22.3 V 778.4 Z M 767.3,543.9 V 578 c 0,98.2 -79.7,178.1 -178.1,178.1 H 366.3 C 268.1,756.1 188.2,676.4 188.2,578 V 177 h 579.1 v 167.7 c 23.6,-21.2 54.9,-34 89.1,-34 73.8,0 133.6,59.8 133.6,133.6 0,73.8 -59.8,133.6 -133.6,133.6 -34.3,0.1 -65.5,-12.8 -89.1,-34 z M 232.7,221.6 v 89.1 h 490 v -89.1 z m 623.7,311.8 c 49.2,0 89.1,-39.9 89.1,-89.1 0,-49.2 -39.9,-89.1 -89.1,-89.1 -49.2,0 -89.1,39.9 -89.1,89.1 0,49.2 39.9,89.1 89.1,89.1 z"
     id="path4"
     inkscape:connector-curvature="0"
     style="fill:#d3dae3;fill-opacity:1" /></g>
</svg>