<?xml version="1.0" encoding="UTF-8" standalone="no"?>
<svg
   xmlns:dc="http://purl.org/dc/elements/1.1/"
   xmlns:cc="http://creativecommons.org/ns#"
   xmlns:rdf="http://www.w3.org/1999/02/22-rdf-syntax-ns#"
   xmlns:svg="http://www.w3.org/2000/svg"
   xmlns="http://www.w3.org/2000/svg"
   xmlns:sodipodi="http://sodipodi.sourceforge.net/DTD/sodipodi-0.dtd"
   xmlns:inkscape="http://www.inkscape.org/namespaces/inkscape"
   inkscape:version="1.0 (4035a4fb49, 2020-05-01)"
   sodipodi:docname="wallet.svg"
   height="100%"
   width="100%"
   version="1.1"
   id="svg"
   viewBox="0 0 22 22">
  <sodipodi:namedview
     inkscape:document-rotation="0"
     inkscape:current-layer="svg"
     inkscape:window-maximized="1"
     inkscape:window-y="0"
     inkscape:window-x="0"
     inkscape:cy="17.53718"
     inkscape:cx="20.079513"
     inkscape:zoom="5.3636364"
     showgrid="false"
     id="namedview12"
     inkscape:window-height="1015"
     inkscape:window-width="1920"
     inkscape:pageshadow="2"
     inkscape:pageopacity="0"
     guidetolerance="10"
     gridtolerance="10"
     objecttolerance="10"
     borderopacity="1"
     bordercolor="#666666"
     pagecolor="#ffffff" />
  <defs
     id="defs81">
    <style
       type="text/css"
       id="current-color-scheme" />
  </defs>
  <metadata
     id="metadata34">
    <rdf:RDF>
      <cc:Work
         rdf:about="">
        <dc:format>image/svg+xml</dc:format>
        <dc:type
           rdf:resource="http://purl.org/dc/dcmitype/StillImage" />
        <dc:title />
      </cc:Work>
    </rdf:RDF>
  </metadata>
  <g
     transform="translate(27,-1)"
     id="wallet-closed">
    <rect
       y="1"
       x="1"
       height="22"
       width="22"
       id="rect3009"
       style="fill:#ffffff;fill-opacity:0;stroke:none" />
    <path
       class="ColorScheme-Text"
       id="rect7143-9"
       transform="translate(-40)"
       d="M 43,7 V 20 H 61 V 7 H 58 57 46 Z m 1,1 h 6 L 60,8.03125 V 12 l -8,-0.03125 v 4 L 60,16 v 3 H 44 Z m 1,1 v 2 H 59 V 9 Z m 9,3.96875 c 0.55228,0 1,0.4477 1,1 0,0.5523 -0.44772,1 -1,1 -0.55228,0 -1,-0.4477 -1,-1 0,-0.5523 0.44772,-1 1,-1 z"
       style="fill:#d3dae3;fill-opacity:1;stroke:none" />
  </g>
  <g
     transform="translate(-1,-1)"
     id="wallet-open">
    <rect
       style="fill:#ffffff;fill-opacity:0;stroke:none"
       id="rect3014"
       width="22"
       height="22"
       x="1"
       y="1" />
    <path
       class="ColorScheme-Text"
       id="rect7143"
       d="M 6,4 V 7 H 3 V 20 H 21 V 7 H 18 V 6 H 16 V 4 Z m 1,1 h 8 V 6 H 8 v 4 H 7 Z m 11,3 h 2 v 4 h -8 v 4 h 8 v 3 H 4 V 8 H 6 V 9 H 5 v 2 h 1 2 9 1 1 V 9 h -1 z m -4,5 c 0.55228,0 1,0.4477 1,1 0,0.5523 -0.44772,1 -1,1 -0.55228,0 -1,-0.4477 -1,-1 0,-0.5523 0.44772,-1 1,-1 z"
       style="fill:#d3dae3;fill-opacity:1;stroke:none" />
  </g>
</svg>
